<svg id="svg" version="1.1" xmlns="http://www.w3.org/2000/svg" width="400"
     height="400" viewBox="-160, -140, 710, 710">
    <g id="svgg">
        <path id="path0"
              d="M125.108 39.178 C 124.768 39.923,124.922 40.454,126.021 42.320 C 127.717 45.201,127.830 44.943,124.316 46.235 C 107.394 52.459,96.821 54.857,95.898 52.680 C 95.214 51.064,93.291 51.219,91.852 53.006 C 91.193 53.823,89.803 55.547,88.763 56.836 C 83.090 63.870,79.110 71.970,76.747 81.294 L 75.733 85.293 70.861 90.350 C 50.289 111.703,36.601 136.033,29.281 164.258 C 21.913 192.663,22.495 224.493,30.902 252.984 L 32.071 256.944 30.462 259.429 C 28.560 262.367,26.609 266.415,25.428 269.872 C 23.531 275.424,23.357 276.961,23.161 289.909 L 22.974 302.279 26.480 306.120 C 30.111 310.097,40.159 319.936,43.812 323.091 C 47.189 326.008,61.154 335.186,69.052 339.679 C 73.076 341.968,76.719 344.159,77.148 344.550 C 77.578 344.940,78.809 345.555,79.883 345.917 C 82.269 346.722,90.006 350.545,91.288 351.553 C 91.800 351.956,93.830 352.664,95.798 353.126 C 97.766 353.588,100.878 354.556,102.715 355.277 C 108.306 357.470,111.796 358.594,113.021 358.594 C 114.728 358.594,122.309 360.394,126.367 361.763 C 128.301 362.415,131.992 363.271,134.570 363.666 C 137.148 364.060,141.178 364.926,143.525 365.590 C 145.971 366.282,148.721 366.798,149.970 366.798 C 151.168 366.799,154.400 367.241,157.153 367.780 C 165.555 369.426,173.633 370.332,182.129 370.581 C 190.040 370.813,191.137 370.674,189.488 369.644 C 187.844 368.617,182.360 358.600,181.069 354.266 C 180.722 353.101,180.269 351.623,180.062 350.982 C 178.452 345.994,178.758 334.136,180.689 326.695 C 183.724 315.000,193.362 302.438,204.004 296.307 L 205.859 295.238 205.859 263.861 L 205.859 232.483 202.832 231.035 C 200.061 229.711,192.840 226.394,181.890 221.416 C 179.557 220.356,177.603 219.541,177.548 219.607 C 177.492 219.673,176.622 223.682,175.613 228.516 C 173.955 236.460,170.221 253.861,167.774 265.039 C 167.257 267.402,166.209 272.236,165.446 275.781 C 164.683 279.326,163.890 282.930,163.684 283.789 C 163.477 284.648,162.589 288.691,161.710 292.773 C 160.831 296.855,159.155 304.523,157.986 309.812 C 156.816 315.101,155.844 319.583,155.826 319.773 C 155.743 320.621,154.888 316.800,152.142 303.320 C 150.523 295.371,148.363 284.912,147.342 280.078 L 145.486 271.289 137.294 271.185 L 129.102 271.080 128.440 274.310 C 128.076 276.086,126.898 281.758,125.822 286.914 C 124.747 292.070,122.851 301.431,121.610 307.715 C 120.368 313.999,119.258 319.141,119.143 319.141 C 119.027 319.141,118.176 315.581,117.251 311.230 C 115.700 303.932,113.603 294.334,107.373 266.016 C 103.779 249.679,100.513 234.541,98.944 226.953 C 98.167 223.193,97.400 219.967,97.240 219.783 C 96.971 219.475,89.725 222.695,72.070 230.969 C 51.458 240.629,46.071 243.611,39.964 248.743 L 37.936 250.447 37.493 248.759 C 37.250 247.830,36.805 246.191,36.506 245.117 C 35.026 239.809,33.490 231.486,32.360 222.656 C 31.536 216.208,31.651 193.822,32.543 187.124 C 37.097 152.932,50.421 123.879,72.805 99.330 C 75.150 96.759,74.886 96.342,75.595 103.743 C 76.297 111.083,77.960 119.649,79.813 125.466 L 81.143 129.642 79.592 130.890 C 75.227 134.397,75.391 137.367,80.885 154.327 C 85.003 167.038,86.273 168.909,91.124 169.410 L 93.200 169.624 93.927 172.214 C 96.178 180.238,99.045 185.760,103.220 190.108 L 105.578 192.563 105.312 195.012 C 105.165 196.359,104.558 201.196,103.961 205.761 L 102.877 214.061 103.685 214.779 C 104.525 215.527,112.239 220.865,123.633 228.584 C 127.285 231.059,131.730 234.077,133.511 235.292 C 135.292 236.506,136.923 237.500,137.135 237.500 C 137.775 237.500,170.597 215.335,171.378 214.376 C 171.675 214.012,171.398 210.842,170.404 203.219 L 169.016 192.571 171.745 189.742 C 175.748 185.595,178.668 180.111,180.633 173.047 C 181.022 171.650,181.402 170.288,181.478 170.020 C 181.555 169.746,182.229 169.531,183.008 169.531 C 188.556 169.531,192.052 163.098,197.442 142.969 C 199.194 136.425,197.833 131.244,194.029 129.976 C 193.707 129.868,194.003 128.468,195.005 125.360 C 205.247 93.603,200.505 69.086,183.279 64.732 L 181.207 64.208 179.940 61.292 C 178.252 57.410,176.587 55.031,173.321 51.838 C 171.829 50.379,170.673 49.120,170.753 49.041 C 171.418 48.384,186.279 47.764,194.141 48.065 C 220.423 49.072,236.578 53.433,266.016 67.468 C 270.805 69.751,282.555 77.538,285.888 80.637 C 287.312 81.960,290.322 84.641,292.578 86.594 C 317.216 107.923,334.528 136.188,342.423 167.976 C 343.213 171.157,343.751 174.044,343.617 174.392 C 343.396 174.970,338.541 175.019,286.348 174.971 L 229.322 174.918 227.561 175.771 C 224.238 177.379,222.398 180.556,221.954 185.450 L 221.680 188.477 220.098 188.688 C 218.151 188.948,216.169 190.071,215.080 191.532 L 214.258 192.635 214.063 246.371 L 213.867 300.107 210.996 301.610 C 184.539 315.458,179.216 348.426,199.931 370.131 C 216.207 387.184,245.819 387.088,261.868 369.931 C 262.877 368.852,263.925 367.969,264.195 367.969 C 264.466 367.969,264.866 367.790,265.085 367.572 C 265.349 367.307,280.040 367.172,309.011 367.167 C 361.518 367.158,360.190 367.236,362.594 364.015 C 363.638 362.617,363.786 193.906,362.745 191.893 C 361.914 190.286,359.917 189.124,356.951 188.520 L 354.492 188.020 354.245 186.295 C 354.109 185.346,353.701 183.340,353.338 181.836 C 352.272 177.423,352.078 176.570,351.205 172.461 C 334.644 94.553,268.631 40.830,189.453 40.822 C 175.303 40.820,172.674 40.996,162.328 42.636 C 157.540 43.394,157.106 43.404,154.125 42.817 C 152.393 42.476,148.428 41.931,145.313 41.604 C 138.228 40.862,132.943 39.984,129.777 39.024 C 126.536 38.041,125.611 38.072,125.108 39.178 M243.555 184.570 L 243.555 188.477 235.742 188.413 L 227.930 188.350 227.930 185.592 C 227.930 181.021,228.963 180.664,242.188 180.664 L 243.555 180.664 243.555 184.570 M303.809 181.039 C 304.347 181.245,304.511 187.361,303.998 188.120 C 303.795 188.420,295.807 188.535,276.856 188.511 L 250.001 188.477 250.000 184.570 L 250.000 180.664 276.660 180.758 C 291.323 180.809,303.540 180.936,303.809 181.039 M344.990 181.029 C 345.134 181.230,345.363 182.461,345.498 183.764 C 345.634 185.067,345.837 186.616,345.950 187.207 L 346.156 188.281 328.351 188.281 L 310.547 188.281 310.547 184.473 L 310.547 180.664 327.637 180.664 C 337.788 180.664,344.833 180.812,344.990 181.029 M346.973 208.130 L 348.047 209.131 348.047 277.954 C 348.047 315.807,347.933 347.345,347.795 348.038 C 347.215 350.939,349.486 350.778,309.075 350.780 L 273.032 350.781 273.267 349.707 C 273.397 349.116,273.602 348.369,273.724 348.047 C 273.845 347.725,273.990 346.846,274.045 346.094 C 274.100 345.342,274.272 343.804,274.427 342.676 L 274.709 340.625 279.763 340.625 C 284.614 340.625,284.872 340.584,286.159 339.602 L 287.500 338.579 287.494 332.668 C 287.486 323.974,287.152 323.571,279.688 323.235 C 270.516 322.822,271.082 322.993,269.629 320.198 C 262.594 306.669,246.950 296.875,232.371 296.875 L 229.688 296.875 229.688 253.339 C 229.688 207.812,229.667 208.365,231.391 207.460 C 232.177 207.047,342.268 206.584,344.922 206.982 C 345.459 207.063,346.382 207.579,346.973 208.130 M299.164 219.887 C 297.802 220.989,297.525 227.993,298.793 229.261 C 299.899 230.368,333.511 230.561,335.069 229.470 C 336.326 228.590,336.394 221.159,335.156 219.922 C 333.966 218.731,300.632 218.699,299.164 219.887 M244.996 220.713 C 243.360 221.710,242.426 223.854,242.709 225.962 C 243.391 231.047,250.996 231.603,252.707 226.692 C 254.291 222.147,249.164 218.172,244.996 220.713 M284.405 221.905 C 283.363 222.947,283.203 223.384,283.203 225.195 C 283.203 227.006,283.363 227.443,284.405 228.486 C 285.447 229.528,285.884 229.688,287.695 229.688 C 289.506 229.688,289.943 229.528,290.986 228.486 C 292.028 227.443,292.188 227.006,292.188 225.195 C 292.188 223.384,292.028 222.947,290.986 221.905 C 289.943 220.863,289.506 220.703,287.695 220.703 C 285.884 220.703,285.447 220.863,284.405 221.905 M260.615 223.170 C 258.368 225.561,260.027 229.297,263.336 229.297 C 265.712 229.297,266.797 228.178,266.797 225.727 C 266.797 222.491,262.804 220.840,260.615 223.170 M271.162 223.170 C 268.915 225.561,270.574 229.297,273.883 229.297 C 276.259 229.297,277.344 228.178,277.344 225.727 C 277.344 222.491,273.351 220.840,271.162 223.170 M299.000 235.320 C 297.856 236.157,297.856 244.312,299.000 245.149 C 300.313 246.108,334.414 245.958,335.291 244.989 C 336.210 243.973,336.236 236.292,335.324 235.379 C 334.445 234.501,300.197 234.445,299.000 235.320 M245.332 236.243 C 241.188 238.526,242.172 244.713,246.803 245.496 C 249.888 246.017,252.841 243.656,252.841 240.669 C 252.841 236.881,248.654 234.414,245.332 236.243 M284.141 236.875 C 282.941 238.075,282.813 238.418,282.813 240.430 C 282.813 242.441,282.941 242.785,284.141 243.984 C 285.340 245.184,285.684 245.313,287.695 245.313 C 289.707 245.313,290.050 245.184,291.250 243.984 C 292.450 242.785,292.578 242.441,292.578 240.430 C 292.578 238.418,292.450 238.075,291.250 236.875 C 290.050 235.675,289.707 235.547,287.695 235.547 C 285.684 235.547,285.340 235.675,284.141 236.875 M260.615 238.404 C 258.368 240.796,260.027 244.531,263.336 244.531 C 265.712 244.531,266.797 243.412,266.797 240.961 C 266.797 237.726,262.804 236.074,260.615 238.404 M271.162 238.404 C 268.915 240.796,270.574 244.531,273.883 244.531 C 276.259 244.531,277.344 243.412,277.344 240.961 C 277.344 237.726,273.351 236.074,271.162 238.404 M131.641 240.824 C 124.634 242.749,118.395 247.981,118.371 251.953 C 118.364 252.942,120.726 256.294,126.075 262.891 L 128.768 266.211 137.171 266.316 L 145.575 266.421 149.871 261.043 C 156.996 252.122,156.959 252.197,155.630 249.397 C 152.643 243.103,139.910 238.553,131.641 240.824 M241.961 256.438 C 241.031 257.857,241.298 263.645,242.346 264.803 L 243.090 265.625 288.635 265.616 C 342.014 265.606,336.052 266.269,336.051 260.343 C 336.051 254.874,341.838 255.469,288.606 255.469 L 242.596 255.469 241.961 256.438 M327.060 275.036 C 326.119 275.502,325.028 276.468,324.521 277.282 L 323.633 278.711 323.525 306.366 C 323.455 324.442,323.557 334.538,323.819 335.514 C 325.390 341.346,333.168 342.395,336.392 337.210 L 337.305 335.742 337.384 307.074 C 337.468 276.704,337.502 277.331,335.685 275.727 C 333.996 274.236,329.418 273.870,327.060 275.036 M243.581 275.760 C 241.646 277.036,241.435 277.831,241.420 283.912 C 241.399 292.256,241.747 292.578,250.769 292.578 L 256.719 292.578 258.074 291.223 L 259.429 289.868 259.304 283.573 L 259.180 277.278 257.904 276.139 L 256.628 275.000 250.677 275.003 C 245.453 275.005,244.587 275.097,243.581 275.760 M271.833 275.585 C 269.783 276.699,269.531 277.598,269.531 283.795 C 269.531 292.269,269.734 292.514,276.790 292.579 C 284.905 292.653,284.632 292.687,286.029 291.439 L 287.305 290.299 287.305 284.272 C 287.305 275.231,287.075 274.991,278.437 275.016 C 274.382 275.027,272.573 275.183,271.833 275.585 M299.340 276.311 L 297.852 277.674 297.852 283.945 L 297.852 290.217 298.929 291.294 C 301.023 293.388,312.394 293.405,314.483 291.316 L 315.625 290.174 315.625 283.960 L 315.625 277.747 314.486 276.471 L 313.347 275.195 307.087 275.071 L 300.828 274.947 299.340 276.311 M270.850 300.556 L 269.459 301.947 269.593 307.712 C 269.799 316.602,270.038 316.830,279.102 316.813 C 287.260 316.798,287.571 316.451,287.411 307.527 C 287.305 301.609,287.299 301.572,286.223 300.496 L 285.141 299.414 278.690 299.290 L 272.240 299.166 270.850 300.556 M299.774 299.955 C 297.146 301.557,296.576 313.073,298.999 315.600 L 300.146 316.797 306.349 316.797 C 315.483 316.797,315.604 316.692,315.616 308.740 C 315.631 299.198,315.654 299.222,306.836 299.222 C 301.791 299.222,300.809 299.324,299.774 299.955 M238.955 307.807 C 259.044 312.623,270.322 335.495,261.315 353.152 C 260.884 353.996,260.637 354.688,260.766 354.688 C 261.105 354.688,259.548 357.201,257.316 360.259 C 245.661 376.225,218.838 377.180,205.844 362.092 C 184.399 337.190,206.994 300.145,238.955 307.807 M227.930 314.690 C 210.178 317.254,199.990 335.118,207.434 350.630 C 218.975 374.680,255.285 367.859,256.532 341.406 C 257.288 325.348,243.474 312.445,227.930 314.690 M235.547 322.968 C 235.547 324.755,235.611 324.866,236.908 325.335 C 238.425 325.884,242.578 329.490,242.578 330.259 C 242.578 331.592,236.805 333.271,235.914 332.198 C 233.662 329.485,227.796 329.509,227.112 332.234 C 226.473 334.779,227.451 335.643,232.892 337.341 C 239.370 339.362,242.587 342.428,242.574 346.569 C 242.565 349.646,239.364 353.814,236.449 354.546 C 235.634 354.750,235.547 354.995,235.547 357.074 L 235.547 359.375 231.543 359.369 C 226.708 359.362,226.492 359.254,226.614 356.905 C 226.722 354.822,226.855 355.030,224.718 353.952 C 221.885 352.523,218.132 348.535,218.899 347.767 C 219.443 347.224,224.171 345.435,224.477 345.657 C 224.660 345.790,225.290 346.543,225.877 347.332 C 228.576 350.955,235.547 350.067,235.547 346.100 C 235.547 344.530,234.134 343.548,230.116 342.329 C 224.246 340.547,221.799 338.894,220.529 335.852 C 219.014 332.227,221.043 327.729,225.018 325.898 C 226.505 325.213,226.543 325.145,226.552 323.145 L 226.563 321.094 231.055 321.094 L 235.547 321.094 235.547 322.968 M297.724 330.377 C 297.905 340.750,297.913 340.759,307.410 340.556 L 313.347 340.430 314.486 339.154 L 315.625 337.878 315.625 331.882 C 315.625 323.142,315.600 323.122,304.559 323.083 L 297.596 323.058 297.724 330.377 "
              stroke="none" fill="#FFF" fill-rule="evenodd"></path>
    </g>
</svg>