<svg id="svg" version="1.1" xmlns="http://www.w3.org/2000/svg" width="400"
     height="400" viewBox="-127.5, -137.5, 660, 660">
    <g id="svgg">
        <path id="path0"
              d="M256.028 41.725 C 255.819 41.872,255.001 43.311,254.210 44.922 C 251.821 49.787,249.515 51.996,244.824 53.913 C 241.993 55.070,242.000 55.105,245.410 56.738 C 250.140 59.004,253.607 62.833,255.072 67.410 C 255.704 69.385,256.154 69.865,256.483 68.913 C 258.438 63.253,261.636 59.466,266.526 57.018 C 270.292 55.133,270.391 54.862,267.665 53.902 C 262.874 52.214,257.034 45.847,257.032 42.308 C 257.031 41.696,256.505 41.390,256.028 41.725 M151.468 42.608 C 151.094 42.826,150.334 43.963,149.780 45.134 C 147.805 49.308,143.945 52.698,139.551 54.116 C 136.934 54.960,136.970 55.147,140.031 56.580 C 146.197 59.465,149.092 62.821,151.344 69.696 C 151.530 70.264,152.058 69.493,153.509 66.534 C 155.780 61.905,158.599 58.997,162.928 56.817 C 166.215 55.162,166.233 55.010,163.266 53.901 C 158.786 52.225,155.842 49.502,153.665 45.020 C 152.908 43.462,152.258 42.193,152.219 42.199 C 152.180 42.206,151.842 42.390,151.468 42.608 M186.328 49.248 C 177.837 50.702,171.884 58.257,171.884 67.578 C 171.884 76.994,175.946 82.869,190.755 94.869 C 197.495 100.330,200.028 102.772,202.440 106.130 C 203.899 108.162,203.846 108.158,205.151 106.312 C 207.351 103.199,210.171 100.482,217.752 94.167 C 231.570 82.658,235.310 77.393,235.836 68.704 C 236.964 50.096,213.471 41.326,205.044 57.210 C 203.911 59.346,203.811 59.367,203.171 57.598 C 201.154 52.020,193.191 48.073,186.328 49.248 M295.771 59.154 C 294.284 63.301,290.790 66.507,286.821 67.365 C 284.845 67.792,285.020 68.122,287.740 69.098 C 291.665 70.505,295.256 74.526,296.241 78.613 C 296.514 79.749,297.266 80.101,297.266 79.093 C 297.266 76.290,301.329 71.163,305.002 69.330 C 307.390 68.139,307.426 67.645,305.180 66.896 C 302.016 65.841,298.747 62.122,297.628 58.301 C 296.988 56.117,296.835 56.187,295.771 59.154 M109.913 57.344 C 109.682 57.494,108.999 58.723,108.396 60.075 C 106.909 63.412,103.905 66.167,100.743 67.096 C 98.198 67.844,97.896 68.214,99.512 68.603 C 103.862 69.651,107.663 73.421,109.012 78.027 C 109.470 79.591,110.156 80.287,110.156 79.188 C 110.156 75.780,115.262 70.163,119.629 68.767 C 121.146 68.282,121.608 67.578,120.410 67.578 C 116.940 67.576,112.117 63.044,110.766 58.516 C 110.504 57.637,110.169 57.178,109.913 57.344 M150.661 77.273 C 149.352 81.473,144.695 85.886,141.527 85.927 C 139.915 85.947,140.228 86.654,142.128 87.285 C 146.435 88.715,149.109 91.351,150.839 95.872 C 151.571 97.787,152.343 98.440,152.344 97.145 C 152.346 93.701,157.430 88.450,162.207 86.957 C 163.111 86.674,163.085 85.938,162.172 85.938 C 159.081 85.938,154.738 81.947,152.896 77.418 C 151.737 74.564,151.510 74.549,150.661 77.273 M254.895 76.074 C 254.396 78.073,252.691 81.047,251.117 82.662 C 249.730 84.085,248.409 84.849,244.922 86.245 C 244.002 86.613,243.991 86.652,244.727 86.906 C 250.007 88.729,252.768 91.246,254.485 95.801 C 255.388 98.198,255.428 98.181,256.977 94.736 C 258.771 90.745,263.471 86.742,266.387 86.723 C 267.299 86.716,266.367 86.081,264.648 85.538 C 261.114 84.420,257.994 81.123,256.432 76.855 C 255.657 74.736,255.277 74.543,254.895 76.074 M98.650 94.761 C 93.043 96.814,91.609 104.593,95.770 110.386 C 97.823 113.246,108.140 122.656,109.221 122.656 C 111.126 122.656,122.530 111.497,124.301 107.901 C 126.433 103.569,125.713 99.002,122.445 96.132 C 118.624 92.777,112.484 93.897,110.191 98.366 L 109.475 99.763 108.859 98.572 C 106.990 94.959,102.593 93.318,98.650 94.761 M287.358 94.692 C 282.471 96.503,280.422 103.134,283.071 108.571 C 284.693 111.902,295.852 122.656,297.686 122.656 C 300.081 122.656,312.392 109.782,313.471 106.148 C 316.354 96.439,304.285 89.560,299.010 97.906 L 297.920 99.631 297.101 98.172 C 295.272 94.910,290.942 93.364,287.358 94.692 M167.578 100.277 C 165.571 101.015,164.932 103.746,166.356 105.504 C 167.993 107.526,171.875 105.954,171.875 103.268 C 171.875 101.351,169.380 99.614,167.578 100.277 M237.695 100.461 C 235.323 101.729,235.238 104.885,237.544 106.077 C 240.559 107.636,243.579 103.906,241.309 101.428 C 240.261 100.284,238.772 99.885,237.695 100.461 M155.146 113.404 C 153.536 115.118,153.920 116.217,159.248 125.122 C 161.972 129.674,164.551 133.794,164.981 134.277 C 166.938 136.481,170.865 133.777,169.497 131.167 C 167.728 127.793,159.137 113.738,158.505 113.184 C 157.434 112.244,156.158 112.327,155.146 113.404 M181.406 112.799 C 179.881 113.817,179.901 114.140,182.102 124.023 C 183.836 131.812,184.546 133.147,186.676 132.615 C 189.537 131.901,189.571 131.350,187.355 121.571 C 185.373 112.826,184.124 110.984,181.406 112.799 M222.895 113.233 C 222.209 113.991,218.750 128.053,218.750 130.085 C 218.750 131.285,220.282 132.813,221.484 132.813 C 223.091 132.813,224.077 131.386,224.780 128.047 C 225.156 126.264,225.870 123.135,226.369 121.094 C 227.842 115.058,227.894 114.381,226.956 113.375 C 225.931 112.274,223.829 112.201,222.895 113.233 M250.116 112.896 C 249.186 113.270,248.973 113.577,244.138 121.484 C 242.365 124.385,240.234 127.789,239.402 129.048 C 237.686 131.649,237.546 132.660,238.700 134.127 C 240.279 136.134,242.323 135.398,244.269 132.123 C 247.215 127.166,250.910 121.199,251.979 119.672 C 254.261 116.414,254.382 114.140,252.331 113.079 C 251.715 112.761,251.158 112.511,251.094 112.525 C 251.029 112.538,250.589 112.705,250.116 112.896 M64.648 118.371 C 57.575 121.097,56.580 123.954,53.704 149.805 C 53.154 154.746,52.363 161.777,51.946 165.430 C 51.528 169.082,50.829 176.025,50.392 180.859 C 49.956 185.693,49.344 192.285,49.033 195.508 C 48.073 205.474,47.677 210.407,47.073 219.922 C 46.752 224.971,46.414 230.020,46.321 231.143 C 45.847 236.874,47.548 245.885,50.136 251.344 C 53.019 257.426,56.194 260.786,65.039 267.114 C 74.907 274.174,96.750 290.441,106.250 297.804 C 126.504 313.504,132.673 322.476,134.956 339.551 L 135.204 341.406 165.454 341.406 L 195.703 341.406 195.703 323.098 C 195.703 308.697,195.580 304.091,195.127 301.516 C 191.659 281.820,175.565 262.797,139.063 235.245 C 110.292 213.531,101.574 206.453,93.750 198.461 C 86.573 191.129,83.613 189.614,78.364 190.584 C 70.902 191.963,66.211 197.633,66.211 205.273 C 66.211 211.919,65.353 210.801,87.641 233.203 C 111.477 257.162,123.157 269.646,123.678 271.722 C 124.357 274.427,122.580 276.953,119.997 276.953 C 118.403 276.953,118.675 277.212,104.838 262.500 C 100.090 257.451,89.226 246.377,80.695 237.891 C 64.720 221.998,62.125 219.167,60.456 215.820 C 53.348 201.557,62.029 183.921,76.839 182.538 L 79.316 182.307 79.209 153.751 L 79.102 125.195 77.943 123.103 C 75.261 118.262,69.892 116.351,64.648 118.371 M335.156 118.342 C 333.575 118.885,332.521 119.607,331.163 121.079 C 328.016 124.489,328.125 123.284,328.125 154.702 L 328.125 182.309 330.653 182.545 C 343.151 183.712,352.436 198.358,349.012 211.503 C 347.507 217.281,347.145 217.716,326.188 238.874 C 315.544 249.620,303.760 261.744,300.000 265.816 C 289.320 277.384,289.780 276.953,288.128 276.953 C 285.517 276.953,283.309 274.508,283.863 272.230 C 284.514 269.552,299.661 253.317,324.830 228.320 C 340.737 212.522,341.206 211.911,341.668 206.403 C 342.602 195.263,331.017 187.000,321.301 191.877 C 320.407 192.326,316.857 195.578,313.086 199.401 C 306.714 205.863,301.944 209.959,291.455 217.982 C 288.797 220.016,285.721 222.395,284.620 223.269 C 283.518 224.143,277.887 228.421,272.105 232.777 C 240.433 256.637,225.349 271.500,217.842 286.248 C 212.319 297.099,211.735 300.711,211.726 324.121 L 211.719 341.406 242.188 341.406 L 272.656 341.406 272.656 339.330 C 272.656 328.752,280.132 315.357,291.455 305.648 C 297.984 300.049,322.087 281.683,340.655 268.159 C 361.617 252.892,363.061 247.853,359.190 203.516 C 356.944 177.799,352.673 137.820,351.379 130.407 C 349.684 120.695,342.930 115.672,335.156 118.342 M202.229 118.756 C 200.838 119.850,200.566 128.628,201.886 129.822 C 204.552 132.235,206.641 129.801,206.641 124.280 C 206.641 118.645,204.993 116.582,202.229 118.756 M139.844 122.152 C 137.654 122.957,137.250 125.323,138.945 127.411 C 139.525 128.126,141.508 130.381,143.352 132.422 C 145.196 134.463,147.555 137.144,148.595 138.379 C 152.349 142.839,157.064 139.733,153.418 135.201 C 147.521 127.870,141.368 121.536,140.502 121.906 C 140.462 121.923,140.166 122.034,139.844 122.152 M266.729 122.143 C 265.160 122.547,253.125 136.338,253.125 137.733 C 253.125 140.369,255.974 141.559,257.941 139.746 C 258.767 138.985,261.075 136.462,268.652 128.035 C 271.391 124.990,270.173 121.256,266.729 122.143 M121.552 132.154 C 119.390 134.456,120.143 135.359,129.790 142.037 C 139.253 148.588,139.807 148.877,141.318 148.028 C 144.002 146.522,143.463 144.007,139.939 141.593 C 138.490 140.601,134.504 137.868,131.081 135.520 C 124.292 130.862,123.146 130.458,121.552 132.154 M274.205 137.233 C 264.620 143.767,264.043 144.357,265.001 146.648 C 266.249 149.635,267.095 149.352,276.874 142.670 C 287.081 135.695,288.271 134.289,285.864 132.046 C 284.281 130.572,283.400 130.963,274.205 137.233 M196.680 140.111 C 168.167 142.587,138.526 160.105,118.044 186.586 L 116.787 188.211 120.447 192.250 C 130.572 203.421,141.099 212.262,152.344 219.040 C 184.600 238.483,226.660 237.654,258.628 216.947 C 267.858 210.969,278.972 201.257,287.968 191.311 L 290.704 188.285 289.981 187.152 C 286.600 181.857,271.904 167.198,263.906 161.144 C 243.657 145.818,219.172 138.158,196.680 140.111 M87.500 162.611 L 87.500 183.532 88.653 183.785 C 91.109 184.324,95.780 187.961,98.942 191.797 L 100.392 193.555 100.293 172.266 C 100.198 151.568,100.173 150.928,99.375 149.219 C 97.687 145.599,93.413 142.495,89.355 141.943 L 87.500 141.691 87.500 162.611 M316.127 142.364 C 312.293 143.562,309.285 146.126,307.677 149.569 C 306.768 151.514,306.083 193.359,306.959 193.359 C 307.155 193.359,307.807 192.650,308.408 191.783 C 310.827 188.293,314.922 185.124,319.031 183.561 L 319.922 183.222 319.922 162.510 L 319.922 141.797 318.848 141.823 C 318.257 141.837,317.033 142.081,316.127 142.364 M117.922 152.737 C 116.151 153.772,116.199 157.256,117.997 158.218 C 120.501 159.558,123.364 156.949,122.275 154.319 C 121.592 152.670,119.400 151.874,117.922 152.737 M285.724 153.303 C 283.836 155.191,285.077 158.594,287.656 158.594 C 290.425 158.594,291.774 155.050,289.688 153.255 C 288.323 152.081,286.929 152.098,285.724 153.303 M212.944 153.864 C 229.133 158.034,240.529 175.226,237.743 191.275 C 230.711 231.778,170.099 226.993,170.134 185.938 C 170.153 163.989,191.157 148.252,212.944 153.864 M175.604 158.418 C 159.106 174.757,159.652 200.669,176.816 215.967 C 178.052 217.068,178.957 217.969,178.827 217.969 C 177.122 217.969,163.968 211.683,157.882 207.960 C 149.761 202.991,133.549 190.019,132.895 187.967 C 132.281 186.038,150.689 170.061,160.156 164.307 C 164.830 161.466,176.391 155.897,178.451 155.494 C 178.523 155.480,177.242 156.796,175.604 158.418 M240.560 160.512 C 251.121 165.854,260.593 173.010,270.097 182.826 L 274.764 187.647 269.774 192.435 C 258.007 203.725,245.499 211.831,232.617 216.515 C 231.113 217.062,229.531 217.646,229.102 217.812 C 228.672 217.979,229.397 217.215,230.714 216.115 C 248.199 201.499,248.758 174.633,231.922 158.132 L 229.259 155.523 233.672 157.391 C 236.100 158.419,239.199 159.823,240.560 160.512 M198.828 158.768 C 194.836 159.627,189.844 161.711,189.844 162.519 C 189.844 162.665,190.651 162.895,191.637 163.030 C 201.316 164.357,205.416 175.815,198.786 183.009 C 195.074 187.035,189.586 187.665,184.961 184.595 C 183.887 183.882,182.327 183.196,181.495 183.072 C 179.421 182.762,178.945 181.641,180.886 181.641 C 181.609 181.641,181.597 181.543,180.649 179.729 C 180.085 178.651,179.522 176.736,179.358 175.335 L 179.066 172.852 178.196 174.219 C 174.048 180.737,174.655 192.813,179.524 200.649 C 194.324 224.467,232.696 214.251,232.579 186.523 C 232.504 168.797,215.857 155.107,198.828 158.768 M228.055 182.324 C 228.166 183.110,228.014 183.203,226.622 183.203 C 223.776 183.203,222.552 181.855,225.098 181.526 C 227.340 181.236,227.922 181.393,228.055 182.324 M183.789 186.328 C 183.789 186.760,183.248 186.945,181.738 187.032 C 179.877 187.139,179.688 187.074,179.688 186.328 C 179.688 185.582,179.877 185.517,181.738 185.624 C 183.248 185.711,183.789 185.897,183.789 186.328 M228.443 186.230 C 228.211 187.459,223.828 187.359,223.828 186.125 C 223.828 185.678,224.366 185.547,226.201 185.547 C 228.249 185.547,228.555 185.640,228.443 186.230 M184.695 190.510 C 184.471 191.671,180.078 192.348,180.078 191.222 C 180.078 190.609,181.901 189.937,183.720 189.879 C 184.559 189.852,184.792 190.003,184.695 190.510 M227.116 190.081 C 228.028 190.431,227.904 191.797,226.961 191.797 C 225.909 191.797,223.047 190.623,223.047 190.192 C 223.047 189.800,226.164 189.715,227.116 190.081 M224.842 193.192 C 227.041 193.831,227.176 193.965,226.580 194.906 C 226.104 195.659,222.533 194.265,222.338 193.250 C 222.180 192.430,222.218 192.429,224.842 193.192 M185.938 193.549 C 185.938 194.137,183.661 195.292,182.227 195.432 C 180.817 195.569,181.274 194.077,182.813 193.522 C 184.713 192.836,185.938 192.847,185.938 193.549 M187.642 196.291 C 187.878 196.906,185.174 198.904,183.999 198.983 C 182.579 199.079,183.160 197.441,184.847 196.593 C 186.874 195.576,187.348 195.524,187.642 196.291 M223.314 196.519 C 224.903 197.288,225.725 198.828,224.546 198.828 C 223.690 198.828,220.703 196.842,220.703 196.273 C 220.703 195.498,221.325 195.556,223.314 196.519 M188.650 200.989 C 187.024 202.614,186.830 202.706,186.120 202.177 C 185.380 201.626,185.425 201.539,187.305 199.858 C 190.184 197.283,191.364 198.274,188.650 200.989 M221.135 199.642 C 222.730 200.906,223.118 201.953,221.991 201.953 C 221.203 201.953,218.750 199.678,218.750 198.947 C 218.750 198.131,219.504 198.351,221.135 199.642 M219.629 202.960 C 220.339 203.891,219.968 204.831,219.032 204.471 C 218.048 204.094,216.310 201.595,216.566 200.927 C 216.818 200.272,218.362 201.298,219.629 202.960 M192.969 201.596 C 192.969 202.615,190.679 205.859,189.961 205.859 C 188.838 205.859,189.023 204.663,190.391 203.064 C 191.164 202.161,191.797 201.278,191.797 201.102 C 191.797 200.925,192.061 200.781,192.383 200.781 C 192.716 200.781,192.969 201.132,192.969 201.596 M215.918 203.896 C 216.893 205.336,217.070 206.641,216.289 206.641 C 215.803 206.641,214.063 203.553,214.063 202.691 C 214.063 201.950,215.020 202.572,215.918 203.896 M195.973 204.199 C 195.528 206.383,194.554 208.187,193.945 207.954 C 193.166 207.655,193.206 207.087,194.159 204.932 C 195.064 202.886,196.346 202.368,195.973 204.199 M213.095 205.634 C 213.766 207.392,213.647 208.203,212.719 208.203 C 212.274 208.203,211.328 205.560,211.328 204.319 C 211.328 203.223,212.510 204.103,213.095 205.634 M199.381 204.635 C 199.831 205.363,198.681 209.404,198.061 209.275 C 197.640 209.187,197.484 208.741,197.538 207.781 C 197.676 205.299,198.706 203.542,199.381 204.635 M209.921 206.726 C 210.370 209.010,209.981 210.329,209.180 209.241 C 208.541 208.373,208.036 205.665,208.402 205.072 C 208.914 204.244,209.575 204.963,209.921 206.726 M202.974 206.152 C 202.857 206.743,202.648 207.886,202.509 208.691 C 202.148 210.790,201.170 210.647,201.177 208.496 C 201.185 206.051,201.539 205.078,202.420 205.078 C 203.048 205.078,203.148 205.273,202.974 206.152 M206.641 207.617 C 206.641 210.231,205.848 211.231,205.324 209.277 C 204.768 207.200,205.038 205.078,205.859 205.078 C 206.560 205.078,206.641 205.339,206.641 207.617 M171.903 241.264 C 170.808 242.657,170.866 244.339,172.053 245.526 C 173.969 247.442,176.953 246.014,176.953 243.182 C 176.953 240.366,173.609 239.095,171.903 241.264 M231.708 240.856 C 230.967 241.375,230.839 241.774,230.937 243.259 C 231.156 246.575,234.086 247.492,236.046 244.858 C 238.029 242.195,234.475 238.918,231.708 240.856 M187.615 241.604 C 186.246 242.563,181.040 259.098,181.647 260.562 C 182.332 262.217,184.140 262.824,185.474 261.846 C 186.581 261.035,192.097 246.024,192.159 243.652 C 192.217 241.466,189.537 240.258,187.615 241.604 M216.493 241.624 C 215.184 242.541,215.380 243.989,217.785 251.172 C 218.972 254.717,220.126 258.297,220.350 259.127 C 221.175 262.185,223.298 263.255,225.235 261.589 C 226.722 260.310,226.615 259.615,223.481 250.208 C 220.343 240.789,219.378 239.603,216.493 241.624 M203.125 241.712 C 201.198 242.326,201.172 242.473,201.172 252.734 C 201.172 261.431,201.239 262.438,201.855 262.979 C 203.249 264.203,204.225 264.194,205.472 262.948 L 206.641 261.779 206.641 252.985 C 206.641 242.561,206.082 240.771,203.125 241.712 M202.344 272.950 C 199.645 274.298,200.603 278.516,203.607 278.516 C 206.676 278.516,207.763 274.240,205.050 272.837 C 203.707 272.142,203.983 272.131,202.344 272.950 "
              stroke="none" fill="#FFF" fill-rule="evenodd"></path>
    </g>
</svg>