<svg id="svg" version="1.1" xmlns="http://www.w3.org/2000/svg" width="400"
     height="400" viewBox="-101, -73, 570, 570">
    <g id="svgg">
        <path id="path0"
              d="M317.383 65.611 C 306.215 66.929,296.570 71.826,278.894 85.156 C 268.062 93.326,222.779 127.920,220.996 129.389 L 219.922 130.273 221.155 134.766 C 221.833 137.236,222.427 139.310,222.475 139.373 C 222.523 139.437,224.561 138.107,227.004 136.418 C 237.000 129.507,246.843 123.047,247.377 123.047 C 248.000 123.047,258.793 127.283,266.175 130.425 L 270.827 132.405 280.043 126.416 C 285.111 123.122,291.807 118.790,294.922 116.788 C 324.105 98.036,331.643 91.705,336.589 81.789 C 342.186 70.567,333.978 63.653,317.383 65.611 M175.931 68.400 C 117.823 71.738,66.791 112.791,53.133 167.188 C 47.900 188.030,47.612 211.102,52.385 227.199 L 53.211 229.983 57.366 228.023 C 82.169 216.324,111.366 224.390,124.767 246.645 L 126.102 248.862 126.383 247.576 C 127.239 243.648,129.873 239.931,133.131 238.051 C 134.137 237.470,135.019 236.948,135.091 236.890 C 135.163 236.831,135.374 235.568,135.560 234.082 C 138.553 210.253,173.816 211.532,175.492 235.531 C 175.571 236.664,175.831 237.010,177.112 237.679 C 180.927 239.672,184.194 244.578,184.650 248.997 C 184.911 251.521,184.736 251.350,193.561 257.706 C 211.510 270.632,228.863 276.310,248.438 275.660 C 257.270 275.367,260.091 274.754,274.801 269.929 C 289.509 265.104,293.935 263.852,301.758 262.305 L 308.008 261.069 309.618 257.390 C 327.589 216.339,323.679 162.274,300.320 128.827 L 299.583 127.771 292.858 132.113 C 289.159 134.501,284.649 137.363,282.837 138.474 C 280.116 140.141,279.422 140.771,278.863 142.089 L 278.185 143.685 280.108 147.404 C 283.122 153.233,283.064 153.389,276.363 157.545 C 274.002 159.009,271.751 160.443,271.361 160.731 C 270.693 161.226,270.778 161.503,272.826 165.541 C 276.357 172.501,276.158 172.821,263.899 179.868 C 262.289 180.794,262.782 179.790,254.492 199.023 C 246.524 217.510,246.257 218.091,245.314 218.944 C 242.799 221.220,233.339 226.593,232.040 226.483 C 229.471 226.266,229.516 229.008,231.205 175.195 C 231.407 168.750,231.531 163.434,231.479 163.382 C 231.428 163.330,228.851 164.844,225.752 166.748 C 222.653 168.651,214.915 173.302,208.556 177.083 C 202.198 180.863,196.622 184.271,196.165 184.654 C 195.563 185.159,194.638 187.735,192.818 193.975 C 190.100 203.291,189.479 205.033,188.635 205.720 C 186.687 207.305,174.278 214.181,173.073 214.343 C 171.050 214.614,169.336 213.118,168.574 210.415 C 168.261 209.306,167.018 204.883,165.812 200.586 C 164.605 196.289,163.497 192.649,163.349 192.497 C 163.201 192.345,160.185 193.461,156.648 194.978 C 146.267 199.429,144.151 199.754,142.559 197.143 C 140.844 194.331,141.702 193.142,152.441 183.442 C 154.536 181.550,156.250 179.851,156.250 179.666 C 156.250 179.481,148.032 175.205,137.988 170.163 C 121.770 162.022,114.300 158.184,111.953 156.790 C 110.880 156.152,111.152 155.885,118.309 150.538 C 129.080 142.490,125.068 142.651,156.768 148.995 C 170.265 151.696,181.657 153.906,182.082 153.906 C 182.508 153.906,187.021 150.946,192.112 147.327 C 197.202 143.708,203.456 139.272,206.009 137.468 L 210.651 134.188 201.907 132.930 C 197.099 132.239,190.615 131.322,187.500 130.894 C 181.208 130.029,163.401 127.458,161.437 127.131 C 157.324 126.447,156.111 121.417,159.228 117.967 C 160.936 116.076,161.166 116.006,171.875 114.098 C 196.857 109.648,218.965 105.689,225.586 104.480 C 229.668 103.734,233.503 103.124,234.108 103.125 C 236.011 103.125,255.629 88.828,254.646 88.158 C 237.480 76.463,202.772 66.819,182.227 68.037 C 181.797 68.063,178.964 68.226,175.931 68.400 M325.165 69.674 C 331.554 71.993,331.625 73.384,325.586 77.922 C 320.896 81.446,319.328 81.929,317.428 80.434 C 314.227 77.916,314.589 75.188,318.681 70.996 C 321.187 68.429,321.539 68.357,325.165 69.674 M309.427 85.575 C 310.467 86.131,313.281 90.523,313.281 91.589 C 313.281 93.345,310.096 95.327,308.227 94.734 C 307.457 94.490,304.732 90.858,304.171 89.331 C 303.365 87.131,307.206 84.386,309.427 85.575 M182.813 88.365 C 182.813 89.157,184.700 91.277,185.939 91.877 L 187.167 92.472 185.678 93.244 C 184.660 93.773,183.884 94.609,183.225 95.891 C 182.316 97.658,182.245 97.710,182.001 96.798 C 181.580 95.225,180.544 93.914,179.112 93.142 L 177.769 92.419 179.217 91.620 C 180.123 91.119,180.956 90.218,181.445 89.208 C 182.164 87.725,182.813 87.325,182.813 88.365 M298.854 93.777 C 300.949 96.021,302.495 99.162,302.019 100.208 C 300.810 102.860,297.400 103.250,295.452 100.958 C 292.156 97.081,292.047 94.872,295.076 93.372 C 297.191 92.326,297.532 92.362,298.854 93.777 M287.825 101.742 C 291.943 106.433,291.530 110.149,286.889 110.155 C 285.149 110.157,281.641 106.033,281.641 103.985 C 281.641 100.774,285.686 99.307,287.825 101.742 M131.449 106.027 C 133.056 109.910,134.910 111.649,139.407 113.494 L 143.072 114.998 140.568 115.842 C 134.931 117.744,132.746 119.932,130.656 125.770 C 130.339 126.654,130.092 126.938,129.968 126.563 C 127.684 119.673,125.843 117.723,119.819 115.813 L 117.018 114.925 118.406 114.345 C 119.170 114.026,120.219 113.633,120.737 113.472 C 125.227 112.080,128.661 108.356,129.549 103.918 C 129.851 102.406,130.034 102.610,131.449 106.027 M275.828 108.319 C 276.776 109.041,279.688 113.691,279.688 114.484 C 279.688 116.508,276.108 118.589,274.296 117.619 C 273.229 117.049,270.313 112.616,270.313 111.566 C 270.313 109.194,274.071 106.981,275.828 108.319 M265.800 117.480 C 268.834 121.634,269.028 123.194,266.689 124.620 C 264.102 126.197,262.554 125.517,260.015 121.687 C 256.933 117.037,262.513 112.979,265.800 117.480 M263.062 137.623 C 255.845 142.355,247.783 147.572,244.825 149.424 C 243.190 150.448,242.969 150.748,242.964 151.953 C 242.961 152.705,242.700 159.385,242.385 166.797 C 242.070 174.209,241.633 184.844,241.414 190.430 C 241.195 196.016,240.920 201.282,240.802 202.134 C 240.465 204.584,240.835 203.810,245.304 192.706 C 247.624 186.942,252.109 176.162,255.270 168.750 C 260.651 156.134,269.739 134.783,270.193 133.691 C 270.569 132.787,269.749 133.239,263.062 137.623 M83.273 144.537 C 83.668 145.478,84.416 146.368,85.157 146.779 C 87.762 148.223,87.765 148.232,85.921 149.255 C 84.768 149.895,83.969 150.721,83.422 151.837 C 82.439 153.842,82.315 153.866,81.703 152.175 C 81.183 150.735,78.855 148.438,77.916 148.438 C 76.835 148.438,77.346 147.811,79.135 146.941 C 80.497 146.280,81.083 145.699,81.577 144.524 C 82.381 142.608,82.463 142.609,83.273 144.537 M298.466 170.643 C 300.068 174.830,302.658 177.138,307.324 178.533 C 308.961 179.023,309.565 179.688,308.373 179.688 C 304.364 179.688,298.760 185.111,297.777 189.941 C 297.536 191.127,296.875 191.413,296.875 190.332 C 296.873 186.320,291.339 180.763,286.426 179.839 C 284.569 179.490,284.823 179.214,288.183 177.931 C 292.568 176.257,296.875 171.336,296.875 167.999 C 296.875 167.038,297.458 168.007,298.466 170.643 M85.951 186.355 C 87.927 190.227,90.859 192.262,97.205 194.164 C 100.904 195.272,100.987 195.382,98.604 196.019 C 89.703 198.399,85.527 202.353,83.571 210.249 C 83.069 212.279,82.651 212.376,82.285 210.548 C 80.762 202.932,76.192 198.312,68.164 196.274 C 64.647 195.381,64.405 195.125,66.560 194.582 C 76.738 192.020,79.360 189.408,82.679 178.527 C 82.775 178.211,83.371 179.490,84.002 181.368 C 84.633 183.247,85.510 185.491,85.951 186.355 M134.850 200.617 C 136.311 202.725,136.255 202.876,133.570 204.081 C 130.833 205.309,130.487 205.250,129.372 203.360 L 128.548 201.963 130.778 200.417 C 133.384 198.609,133.461 198.613,134.850 200.617 M122.101 208.025 C 122.674 209.002,123.073 209.870,122.989 209.954 C 122.673 210.270,119.056 211.719,118.584 211.719 C 118.081 211.719,116.491 209.146,116.814 208.854 C 117.031 208.658,120.865 206.268,120.980 206.257 C 121.024 206.253,121.529 207.049,122.101 208.025 M302.689 208.301 C 303.453 209.876,304.062 210.442,306.199 211.561 C 307.124 212.045,307.123 212.047,305.548 212.850 C 303.902 213.690,302.344 215.496,302.344 216.564 C 302.344 217.493,301.655 217.317,301.342 216.309 C 300.863 214.765,299.667 213.397,298.178 212.691 L 296.732 212.005 298.123 211.291 C 299.796 210.433,301.563 208.430,301.563 207.392 C 301.563 206.274,301.797 206.463,302.689 208.301 M110.156 215.410 C 110.156 216.573,108.243 216.830,107.542 215.760 C 106.540 214.231,108.320 212.663,109.461 214.071 C 109.843 214.544,110.156 215.146,110.156 215.410 M201.545 225.717 C 202.627 229.733,205.590 232.858,209.766 234.386 C 213.712 235.830,213.681 235.687,210.315 236.914 C 206.072 238.460,203.722 240.794,202.046 245.126 C 200.847 248.226,200.838 248.236,200.410 247.070 C 199.387 244.287,199.023 243.476,198.200 242.147 C 196.555 239.491,191.688 236.328,189.246 236.328 C 187.730 236.328,188.603 235.493,191.112 234.544 C 196.170 232.629,198.357 230.457,200.033 225.684 C 200.685 223.828,201.039 223.836,201.545 225.717 M283.993 231.250 C 286.663 238.160,287.793 239.114,297.603 242.744 L 298.918 243.230 295.260 244.499 C 287.973 247.027,285.903 249.209,283.219 257.189 L 282.181 260.277 281.308 257.617 C 278.630 249.461,275.981 246.700,268.750 244.531 C 267.139 244.048,265.493 243.536,265.094 243.393 C 264.571 243.207,265.284 242.818,267.633 242.010 C 276.223 239.053,278.689 236.717,281.059 229.297 C 281.947 226.515,282.113 226.259,282.439 227.172 C 282.588 227.589,283.287 229.424,283.993 231.250 M153.031 229.071 C 147.102 231.187,145.055 237.887,148.873 242.680 C 150.179 244.319,150.149 244.350,146.994 244.673 C 143.097 245.071,137.500 249.408,137.500 252.030 C 137.500 252.202,145.586 252.344,155.469 252.344 C 175.306 252.344,174.263 252.498,172.459 249.839 C 170.360 246.746,167.113 244.822,163.159 244.328 C 160.637 244.013,160.600 243.964,161.856 242.599 C 167.499 236.465,160.855 226.279,153.031 229.071 M75.639 235.209 C 65.841 236.467,56.280 240.954,50.000 247.242 C 25.460 271.810,45.033 314.497,81.311 315.528 L 87.817 315.713 89.707 317.276 C 100.005 325.786,112.912 331.415,129.819 334.773 C 132.395 335.284,132.450 335.514,130.817 338.932 C 129.535 341.616,128.675 341.964,122.767 342.188 L 117.604 342.383 115.665 344.336 L 113.726 346.289 106.375 346.484 C 96.349 346.751,92.578 349.179,92.578 355.369 L 92.578 356.250 157.475 356.250 L 222.372 356.250 222.118 354.395 C 221.322 348.567,218.238 346.744,208.734 346.484 L 201.583 346.289 199.629 344.238 L 197.674 342.188 192.940 342.188 C 187.287 342.188,186.375 341.808,184.961 338.870 C 183.066 334.930,183.025 335.010,187.237 334.444 C 213.701 330.893,243.960 320.423,269.922 305.836 C 302.716 287.410,310.286 284.770,330.343 284.767 C 340.590 284.765,340.713 284.741,341.262 282.554 C 342.635 277.083,335.276 272.884,323.438 272.382 C 312.040 271.900,302.116 273.917,279.883 281.234 C 251.441 290.595,233.843 290.479,210.224 280.775 L 205.408 278.796 203.778 279.730 L 202.148 280.664 157.031 280.781 C 124.629 280.864,111.491 280.774,110.411 280.461 C 109.055 280.067,108.770 280.120,107.482 281.010 C 105.560 282.337,96.396 287.500,95.963 287.500 C 95.773 287.500,94.670 288.366,93.512 289.425 C 75.776 305.634,49.096 285.109,60.289 263.867 C 69.212 246.931,95.798 250.935,99.652 269.797 L 100.145 272.211 101.342 271.593 C 103.134 270.667,108.223 266.762,113.338 262.386 L 117.888 258.495 117.354 257.219 C 111.036 242.096,93.608 232.901,75.639 235.209 M234.421 251.053 C 235.969 252.078,235.986 252.113,235.095 252.442 C 233.838 252.905,232.031 254.695,232.031 255.477 C 232.031 256.767,231.524 256.570,230.713 254.964 C 230.154 253.857,229.393 253.081,228.382 252.587 L 226.881 251.854 228.382 251.021 C 229.301 250.511,230.171 249.600,230.626 248.669 L 231.369 247.151 232.101 248.576 C 232.503 249.360,233.547 250.475,234.421 251.053 M137.207 259.979 C 133.707 260.921,123.737 268.136,119.764 272.601 L 119.020 273.438 156.633 273.438 L 194.247 273.438 191.362 271.172 C 181.172 263.172,177.479 260.818,173.812 259.984 C 170.081 259.135,140.355 259.131,137.207 259.979 M76.758 265.288 C 68.333 267.234,67.452 278.860,75.476 282.207 C 84.527 285.982,92.337 273.716,84.989 267.265 C 82.766 265.313,79.768 264.593,76.758 265.288 M110.657 298.192 C 114.642 299.890,115.173 304.870,111.602 307.047 C 107.256 309.697,102.394 304.494,105.087 300.076 C 106.347 298.009,108.511 297.277,110.657 298.192 M126.938 298.282 C 131.665 300.173,130.772 307.142,125.731 307.694 C 120.228 308.297,118.168 300.444,123.242 298.204 C 124.768 297.531,125.077 297.537,126.938 298.282 M144.004 298.707 C 145.083 299.414,146.094 301.523,146.094 303.068 C 146.094 307.888,139.638 309.526,137.094 305.352 C 134.349 300.850,139.587 295.813,144.004 298.707 M159.884 298.516 C 161.941 299.572,162.736 303.460,161.357 305.721 C 159.356 309.003,153.743 308.043,152.720 304.245 C 151.508 299.743,155.717 296.378,159.884 298.516 M175.864 298.505 C 178.556 299.536,179.229 304.303,176.970 306.339 C 173.613 309.366,168.750 307.243,168.750 302.751 C 168.750 298.839,171.872 296.976,175.864 298.505 M192.108 298.701 C 194.365 300.110,195.119 303.134,193.766 305.352 C 191.822 308.541,187.754 308.616,185.656 305.503 C 182.703 301.121,187.644 295.911,192.108 298.701 M207.813 298.456 C 211.151 300.169,211.383 304.802,208.237 306.922 C 204.784 309.249,200.487 306.509,200.886 302.233 C 201.217 298.679,204.626 296.820,207.813 298.456 "
              stroke="none" fill="#FFF" fill-rule="evenodd"></path>
    </g>
</svg>