<svg id="svg" version="1.1" xmlns="http://www.w3.org/2000/svg" xmlns:xlink="http://www.w3.org/1999/xlink" width="400" height="400" viewBox="0, 0, 400,400"><g id="svgg"><path id="path0" d="M178.300 0.274 C 176.375 0.361,174.800 0.604,174.800 0.816 C 174.800 1.027,173.461 1.200,171.824 1.200 C 170.187 1.200,168.736 1.380,168.600 1.600 C 168.464 1.820,167.564 2.000,166.600 2.000 C 165.636 2.000,164.736 2.180,164.600 2.400 C 164.464 2.620,163.373 2.800,162.176 2.800 C 160.979 2.800,160.000 2.980,160.000 3.200 C 160.000 3.420,159.201 3.600,158.224 3.600 C 157.247 3.600,156.336 3.780,156.200 4.000 C 156.064 4.220,155.243 4.400,154.376 4.400 C 153.509 4.400,152.800 4.580,152.800 4.800 C 152.800 5.020,152.080 5.200,151.200 5.200 C 150.320 5.200,149.600 5.380,149.600 5.600 C 149.600 5.820,148.981 6.000,148.224 6.000 C 147.467 6.000,146.736 6.180,146.600 6.400 C 146.464 6.620,145.823 6.800,145.176 6.800 C 144.529 6.800,144.000 6.980,144.000 7.200 C 144.000 7.420,143.370 7.600,142.600 7.600 C 141.830 7.600,141.200 7.780,141.200 8.000 C 141.200 8.220,140.771 8.400,140.246 8.400 C 139.355 8.400,136.018 9.285,134.200 10.003 C 133.760 10.177,132.770 10.536,132.000 10.800 C 130.307 11.382,128.840 11.971,127.905 12.447 C 127.523 12.641,126.848 12.800,126.405 12.800 C 125.962 12.800,125.600 12.980,125.600 13.200 C 125.600 13.420,125.240 13.600,124.800 13.600 C 124.360 13.600,124.000 13.780,124.000 14.000 C 124.000 14.220,123.550 14.400,123.000 14.400 C 122.450 14.400,122.000 14.580,122.000 14.800 C 122.000 15.020,121.550 15.200,121.000 15.200 C 120.450 15.200,120.000 15.380,120.000 15.600 C 120.000 15.820,119.640 16.000,119.200 16.000 C 118.760 16.000,118.400 16.180,118.400 16.400 C 118.400 16.620,118.040 16.800,117.600 16.800 C 117.160 16.800,116.800 16.980,116.800 17.200 C 116.800 17.420,116.361 17.600,115.824 17.600 C 115.287 17.600,114.736 17.780,114.600 18.000 C 114.464 18.220,114.003 18.400,113.576 18.400 C 113.149 18.400,112.800 18.580,112.800 18.800 C 112.800 19.020,112.440 19.200,112.000 19.200 C 111.560 19.200,111.200 19.346,111.200 19.525 C 111.200 19.704,110.570 20.098,109.800 20.400 C 109.030 20.702,108.400 21.096,108.400 21.275 C 108.400 21.454,108.040 21.600,107.600 21.600 C 107.160 21.600,106.800 21.780,106.800 22.000 C 106.800 22.220,106.440 22.400,106.000 22.400 C 105.560 22.400,105.200 22.580,105.200 22.800 C 105.200 23.020,104.880 23.200,104.488 23.200 C 104.097 23.200,103.517 23.560,103.200 24.000 C 102.883 24.440,102.372 24.800,102.066 24.800 C 101.415 24.800,97.463 26.859,97.267 27.300 C 97.193 27.465,96.977 27.600,96.787 27.600 C 96.596 27.600,95.640 28.140,94.662 28.800 C 93.684 29.460,92.725 30.000,92.530 30.000 C 92.336 30.000,91.917 30.360,91.600 30.800 C 91.283 31.240,90.743 31.600,90.400 31.600 C 90.057 31.600,89.517 31.960,89.200 32.400 C 88.883 32.840,88.343 33.200,88.000 33.200 C 87.657 33.200,87.117 33.560,86.800 34.000 C 86.483 34.440,85.991 34.800,85.708 34.800 C 85.425 34.800,84.628 35.340,83.937 36.000 C 83.246 36.660,82.478 37.200,82.229 37.200 C 81.980 37.200,81.517 37.560,81.200 38.000 C 80.883 38.440,80.293 38.800,79.888 38.800 C 79.484 38.800,79.264 38.980,79.400 39.200 C 79.536 39.420,79.406 39.600,79.112 39.600 C 78.817 39.600,78.317 39.960,78.000 40.400 C 77.683 40.840,77.276 41.200,77.095 41.200 C 76.753 41.200,76.412 41.461,74.349 43.300 C 73.671 43.905,72.959 44.400,72.768 44.400 C 72.577 44.400,71.651 45.167,70.711 46.105 C 69.770 47.043,68.370 48.255,67.600 48.799 C 66.830 49.342,64.439 51.590,62.287 53.793 C 57.582 58.611,58.611 57.582,53.793 62.287 C 51.590 64.439,49.342 66.830,48.799 67.600 C 48.255 68.370,47.043 69.770,46.105 70.711 C 45.167 71.651,44.400 72.577,44.400 72.768 C 44.400 72.959,43.860 73.693,43.200 74.400 C 42.540 75.107,42.000 75.946,42.000 76.266 C 42.000 76.586,41.820 76.736,41.600 76.600 C 41.380 76.464,41.200 76.594,41.200 76.888 C 41.200 77.183,40.840 77.683,40.400 78.000 C 39.960 78.317,39.600 78.817,39.600 79.112 C 39.600 79.406,39.420 79.536,39.200 79.400 C 38.980 79.264,38.800 79.484,38.800 79.888 C 38.800 80.293,38.440 80.883,38.000 81.200 C 37.560 81.517,37.200 82.107,37.200 82.512 C 37.200 82.916,37.020 83.136,36.800 83.000 C 36.580 82.864,36.400 82.994,36.400 83.288 C 36.400 83.583,36.040 84.083,35.600 84.400 C 35.160 84.717,34.800 85.257,34.800 85.600 C 34.800 85.943,34.440 86.483,34.000 86.800 C 33.560 87.117,33.200 87.657,33.200 88.000 C 33.200 88.343,32.840 88.883,32.400 89.200 C 31.960 89.517,31.600 90.057,31.600 90.400 C 31.600 90.743,31.240 91.283,30.800 91.600 C 30.360 91.917,30.000 92.336,30.000 92.530 C 30.000 92.725,29.460 93.684,28.800 94.662 C 28.140 95.640,27.600 96.596,27.600 96.787 C 27.600 96.977,27.443 97.193,27.251 97.267 C 26.809 97.435,24.800 101.396,24.800 102.098 C 24.800 102.387,24.440 102.883,24.000 103.200 C 23.560 103.517,23.200 104.097,23.200 104.488 C 23.200 104.880,23.020 105.200,22.800 105.200 C 22.580 105.200,22.400 105.560,22.400 106.000 C 22.400 106.440,22.220 106.800,22.000 106.800 C 21.780 106.800,21.600 107.160,21.600 107.600 C 21.600 108.040,21.454 108.400,21.275 108.400 C 21.096 108.400,20.702 109.030,20.400 109.800 C 20.098 110.570,19.704 111.200,19.525 111.200 C 19.346 111.200,19.200 111.560,19.200 112.000 C 19.200 112.440,19.020 112.800,18.800 112.800 C 18.580 112.800,18.400 113.065,18.400 113.388 C 18.400 113.711,18.040 114.617,17.600 115.400 C 17.160 116.183,16.800 117.179,16.800 117.612 C 16.800 118.045,16.620 118.400,16.400 118.400 C 16.180 118.400,16.000 118.760,16.000 119.200 C 16.000 119.640,15.820 120.000,15.600 120.000 C 15.380 120.000,15.200 120.349,15.200 120.776 C 15.200 121.203,15.020 121.664,14.800 121.800 C 14.580 121.936,14.400 122.487,14.400 123.024 C 14.400 123.561,14.220 124.000,14.000 124.000 C 13.780 124.000,13.600 124.360,13.600 124.800 C 13.600 125.240,13.420 125.600,13.200 125.600 C 12.980 125.600,12.800 125.962,12.800 126.405 C 12.800 127.183,12.658 127.569,11.662 129.495 C 11.408 129.987,11.200 130.752,11.200 131.195 C 11.200 131.638,11.020 132.000,10.800 132.000 C 10.580 132.000,10.400 132.362,10.400 132.805 C 10.400 133.248,10.237 133.923,10.037 134.305 C 9.446 135.435,8.400 139.217,8.400 140.222 C 8.400 140.734,8.220 141.264,8.000 141.400 C 7.780 141.536,7.600 142.177,7.600 142.824 C 7.600 143.471,7.420 144.000,7.200 144.000 C 6.980 144.000,6.800 144.529,6.800 145.176 C 6.800 145.823,6.620 146.464,6.400 146.600 C 6.180 146.736,6.000 147.467,6.000 148.224 C 6.000 148.981,5.820 149.600,5.600 149.600 C 5.380 149.600,5.200 150.320,5.200 151.200 C 5.200 152.080,5.020 152.800,4.800 152.800 C 4.580 152.800,4.400 153.509,4.400 154.376 C 4.400 155.243,4.220 156.064,4.000 156.200 C 3.780 156.336,3.600 157.247,3.600 158.224 C 3.600 159.201,3.420 160.000,3.200 160.000 C 2.980 160.000,2.800 160.900,2.800 162.000 C 2.800 163.100,2.620 164.000,2.400 164.000 C 2.180 164.000,2.000 164.979,2.000 166.176 C 2.000 167.373,1.820 168.464,1.600 168.600 C 1.380 168.736,1.200 170.061,1.200 171.544 C 1.200 173.167,1.001 174.439,0.700 174.740 C 0.311 175.129,0.200 180.743,0.200 200.087 C 0.200 219.609,0.307 224.969,0.700 225.100 C 1.036 225.212,1.200 226.176,1.200 228.033 C 1.200 229.611,1.372 230.800,1.600 230.800 C 1.822 230.800,2.000 231.867,2.000 233.200 C 2.000 234.533,2.178 235.600,2.400 235.600 C 2.620 235.600,2.800 236.489,2.800 237.576 C 2.800 238.663,2.980 239.664,3.200 239.800 C 3.420 239.936,3.600 240.757,3.600 241.624 C 3.600 242.491,3.780 243.200,4.000 243.200 C 4.220 243.200,4.400 243.999,4.400 244.976 C 4.400 245.953,4.580 246.864,4.800 247.000 C 5.020 247.136,5.200 247.856,5.200 248.600 C 5.200 249.344,5.380 250.064,5.600 250.200 C 5.820 250.336,6.000 250.966,6.000 251.600 C 6.000 252.234,6.180 252.864,6.400 253.000 C 6.620 253.136,6.800 253.867,6.800 254.624 C 6.800 255.381,6.980 256.000,7.200 256.000 C 7.420 256.000,7.600 256.450,7.600 257.000 C 7.600 257.550,7.780 258.000,8.000 258.000 C 8.220 258.000,8.400 258.626,8.400 259.392 C 8.400 260.733,10.006 266.267,10.809 267.695 C 11.024 268.077,11.200 268.752,11.200 269.195 C 11.200 269.638,11.380 270.000,11.600 270.000 C 11.820 270.000,12.000 270.343,12.000 270.762 C 12.000 271.421,12.486 272.589,14.050 275.695 C 14.243 276.077,14.400 276.662,14.400 276.995 C 14.400 277.328,14.580 277.600,14.800 277.600 C 15.020 277.600,15.200 278.140,15.200 278.800 C 15.200 279.460,15.380 280.000,15.600 280.000 C 15.820 280.000,16.000 280.360,16.000 280.800 C 16.000 281.240,16.180 281.600,16.400 281.600 C 16.620 281.600,16.800 281.960,16.800 282.400 C 16.800 282.840,16.980 283.200,17.200 283.200 C 17.420 283.200,17.600 283.549,17.600 283.976 C 17.600 284.403,17.780 284.864,18.000 285.000 C 18.220 285.136,18.400 285.597,18.400 286.024 C 18.400 286.451,18.580 286.800,18.800 286.800 C 19.020 286.800,19.200 287.160,19.200 287.600 C 19.200 288.040,19.380 288.400,19.600 288.400 C 19.820 288.400,20.000 288.760,20.000 289.200 C 20.000 289.640,20.180 290.000,20.400 290.000 C 20.620 290.000,20.800 290.360,20.800 290.800 C 20.800 291.240,20.980 291.600,21.200 291.600 C 21.420 291.600,21.600 291.920,21.600 292.312 C 21.600 292.703,21.960 293.283,22.400 293.600 C 22.840 293.917,23.200 294.497,23.200 294.888 C 23.200 295.280,23.380 295.600,23.600 295.600 C 23.820 295.600,24.000 295.960,24.000 296.400 C 24.000 296.840,24.180 297.200,24.400 297.200 C 24.620 297.200,24.800 297.442,24.800 297.739 C 24.800 298.299,25.960 300.851,26.374 301.200 C 26.504 301.310,27.042 302.255,27.568 303.300 C 28.095 304.345,28.634 305.200,28.765 305.200 C 28.897 305.200,29.229 305.706,29.503 306.325 C 29.776 306.944,30.360 307.836,30.800 308.308 C 31.240 308.780,31.600 309.404,31.600 309.695 C 31.600 309.986,31.960 310.483,32.400 310.800 C 32.840 311.117,33.200 311.657,33.200 312.000 C 33.200 312.343,33.560 312.883,34.000 313.200 C 34.440 313.517,34.800 314.009,34.800 314.292 C 34.800 314.575,35.340 315.372,36.000 316.063 C 36.660 316.754,37.200 317.480,37.200 317.678 C 37.200 317.875,37.650 318.486,38.200 319.036 C 38.750 319.586,39.200 320.200,39.200 320.400 C 39.200 320.600,39.650 321.214,40.200 321.764 C 40.750 322.314,41.200 322.962,41.200 323.205 C 41.200 323.448,41.380 323.536,41.600 323.400 C 41.820 323.264,42.000 323.427,42.000 323.763 C 42.000 324.099,42.633 325.006,43.407 325.780 C 44.180 326.554,44.792 327.297,44.766 327.431 C 44.740 327.565,45.419 328.432,46.274 329.357 C 47.130 330.281,48.270 331.659,48.808 332.419 C 49.346 333.178,51.590 335.561,53.793 337.713 C 55.997 339.865,57.980 341.810,58.200 342.034 C 64.434 348.399,67.317 351.200,67.634 351.200 C 67.850 351.200,68.637 351.811,69.384 352.557 C 70.130 353.303,71.428 354.428,72.268 355.057 C 73.107 355.686,74.209 356.605,74.715 357.100 C 75.222 357.595,75.781 358.000,75.959 358.000 C 76.136 358.000,76.846 358.540,77.537 359.200 C 78.228 359.860,78.974 360.400,79.196 360.400 C 79.418 360.400,79.600 360.580,79.600 360.800 C 79.600 361.020,79.830 361.200,80.112 361.200 C 80.393 361.200,80.883 361.560,81.200 362.000 C 81.517 362.440,82.009 362.800,82.292 362.800 C 82.575 362.800,83.372 363.340,84.063 364.000 C 84.754 364.660,85.522 365.200,85.771 365.200 C 86.020 365.200,86.483 365.560,86.800 366.000 C 87.117 366.440,87.657 366.800,88.000 366.800 C 88.343 366.800,88.883 367.160,89.200 367.600 C 89.517 368.040,90.014 368.400,90.305 368.400 C 90.596 368.400,91.220 368.760,91.692 369.200 C 92.164 369.640,93.056 370.224,93.675 370.497 C 94.294 370.771,94.800 371.112,94.800 371.254 C 94.800 371.396,95.655 371.913,96.700 372.402 C 97.745 372.892,98.690 373.421,98.800 373.578 C 99.101 374.007,101.647 375.200,102.261 375.200 C 102.558 375.200,102.800 375.380,102.800 375.600 C 102.800 375.820,103.160 376.000,103.600 376.000 C 104.040 376.000,104.400 376.180,104.400 376.400 C 104.400 376.620,104.745 376.800,105.167 376.800 C 105.588 376.800,105.993 376.935,106.067 377.100 C 106.278 377.575,109.441 379.200,110.154 379.200 C 110.834 379.200,110.876 374.247,110.800 302.700 C 110.784 287.278,110.889 282.800,111.268 282.800 C 111.537 282.800,113.297 283.593,115.178 284.561 C 124.033 289.119,137.344 293.774,147.800 295.969 C 157.670 298.042,160.696 298.531,170.227 299.595 C 208.472 303.865,235.597 289.160,241.049 261.200 C 247.235 229.476,232.100 206.348,201.800 201.221 C 200.260 200.961,198.100 200.589,197.000 200.396 C 189.118 199.012,174.446 199.027,164.200 200.430 C 162.660 200.641,160.050 200.997,158.400 201.221 C 149.669 202.405,147.625 202.739,141.418 203.995 C 135.949 205.101,135.697 205.069,132.000 202.800 C 130.208 201.700,128.678 200.800,128.600 200.800 C 128.522 200.800,126.992 199.900,125.200 198.800 C 123.408 197.700,121.875 196.800,121.794 196.800 C 121.713 196.800,120.442 196.045,118.970 195.122 L 116.293 193.444 116.566 190.222 C 116.716 188.450,117.010 184.795,117.219 182.100 C 118.118 170.540,118.388 167.102,118.800 162.000 C 119.040 159.030,119.400 154.440,119.600 151.800 C 120.057 145.781,120.656 138.134,121.200 131.400 C 121.431 128.540,121.791 123.950,122.000 121.200 C 122.209 118.450,122.558 113.950,122.775 111.200 C 124.651 87.468,126.066 69.166,126.271 66.000 C 126.406 63.910,126.666 61.794,126.849 61.298 L 127.182 60.396 197.791 60.498 L 268.400 60.600 268.400 36.580 C 268.400 18.572,268.519 12.441,268.875 12.085 C 269.242 11.718,269.059 11.552,268.075 11.355 C 267.374 11.215,266.800 10.942,266.800 10.750 C 266.800 10.558,266.260 10.400,265.600 10.400 C 264.940 10.400,264.400 10.220,264.400 10.000 C 264.400 9.780,263.871 9.600,263.224 9.600 C 262.577 9.600,261.946 9.437,261.823 9.237 C 261.700 9.038,260.700 8.751,259.600 8.600 C 258.500 8.449,257.500 8.162,257.377 7.963 C 257.254 7.763,256.623 7.600,255.976 7.600 C 255.329 7.600,254.800 7.420,254.800 7.200 C 254.800 6.980,254.170 6.800,253.400 6.800 C 252.630 6.800,252.000 6.620,252.000 6.400 C 252.000 6.180,251.280 6.000,250.400 6.000 C 249.520 6.000,248.800 5.820,248.800 5.600 C 248.800 5.380,248.080 5.200,247.200 5.200 C 246.320 5.200,245.600 5.020,245.600 4.800 C 245.600 4.580,244.880 4.400,244.000 4.400 C 243.120 4.400,242.400 4.220,242.400 4.000 C 242.400 3.780,241.601 3.600,240.624 3.600 C 239.647 3.600,238.736 3.420,238.600 3.200 C 238.464 2.980,237.553 2.800,236.576 2.800 C 235.599 2.800,234.800 2.620,234.800 2.400 C 234.800 2.178,233.741 2.000,232.424 2.000 C 231.117 2.000,229.936 1.820,229.800 1.600 C 229.664 1.380,228.339 1.200,226.856 1.200 C 225.263 1.200,223.960 1.000,223.670 0.710 C 223.187 0.227,187.104 -0.120,178.300 0.274 " stroke="none" fill="#dc544c" fill-rule="evenodd"></path><path id="path1" d="M126.849 61.299 C 126.666 61.794,126.406 63.910,126.271 66.000 C 126.066 69.166,124.651 87.468,122.775 111.200 C 122.558 113.950,122.209 118.450,122.000 121.200 C 121.791 123.950,121.431 128.540,121.200 131.400 C 120.656 138.134,120.057 145.781,119.600 151.800 C 119.400 154.440,119.040 159.030,118.800 162.000 C 118.560 164.970,118.189 169.650,117.976 172.400 C 117.047 184.353,116.823 187.183,116.566 190.222 L 116.293 193.444 118.970 195.122 C 120.442 196.045,121.713 196.800,121.794 196.800 C 121.875 196.800,123.408 197.700,125.200 198.800 C 126.992 199.900,128.522 200.800,128.600 200.800 C 128.678 200.800,130.208 201.700,132.000 202.800 C 135.697 205.069,135.949 205.101,141.418 203.995 C 147.625 202.739,149.669 202.405,158.400 201.221 C 160.050 200.997,162.660 200.641,164.200 200.430 C 174.446 199.027,189.118 199.012,197.000 200.396 C 198.100 200.589,200.260 200.961,201.800 201.221 C 229.693 205.941,244.070 224.524,241.997 253.179 C 239.753 284.200,219.377 300.003,181.627 300.001 C 170.327 300.000,162.623 299.082,147.800 295.969 C 137.344 293.774,124.033 289.119,115.178 284.561 C 113.297 283.593,111.542 282.800,111.278 282.800 C 110.914 282.800,110.800 287.465,110.800 302.429 L 110.800 322.058 116.100 324.568 C 124.344 328.473,131.064 330.628,142.900 333.164 C 165.999 338.114,200.977 337.653,221.200 332.131 C 222.410 331.801,223.940 331.393,224.600 331.225 C 251.170 324.464,273.765 303.665,282.205 278.200 C 287.385 262.567,288.847 239.611,285.592 225.000 C 283.477 215.510,281.541 209.966,278.117 203.600 C 266.849 182.648,246.488 169.074,219.400 164.456 C 212.152 163.221,209.197 163.031,197.200 163.032 C 185.392 163.032,181.008 163.297,174.300 164.416 C 173.035 164.627,170.965 164.973,169.700 165.184 C 164.909 165.985,162.154 166.390,160.800 166.493 C 159.079 166.624,159.079 167.811,160.798 149.000 C 161.019 146.580,161.380 142.620,161.600 140.200 C 161.820 137.780,162.185 133.820,162.411 131.400 C 162.637 128.980,162.998 125.065,163.211 122.700 C 163.425 120.335,163.776 116.465,163.992 114.100 C 164.207 111.735,164.567 107.669,164.790 105.064 C 165.014 102.459,165.299 100.164,165.422 99.964 C 165.555 99.749,186.414 99.597,216.524 99.594 C 244.506 99.591,267.627 99.444,267.904 99.268 C 268.300 99.016,268.386 94.848,268.304 79.774 L 268.200 60.600 197.691 60.499 L 127.181 60.398 126.849 61.299 " stroke="none" fill="#fbfbfa" fill-rule="evenodd"></path><path id="path2" d="M268.667 12.267 C 268.520 12.413,268.400 32.014,268.400 55.824 C 268.400 94.930,268.339 99.138,267.767 99.357 C 267.419 99.491,244.300 99.600,216.391 99.600 C 186.353 99.600,165.555 99.748,165.422 99.964 C 165.299 100.164,165.014 102.459,164.790 105.064 C 164.567 107.669,164.207 111.735,163.992 114.100 C 163.776 116.465,163.425 120.335,163.211 122.700 C 162.998 125.065,162.637 128.980,162.411 131.400 C 162.185 133.820,161.820 137.780,161.600 140.200 C 161.380 142.620,161.019 146.580,160.798 149.000 C 159.079 167.811,159.079 166.624,160.800 166.493 C 162.154 166.390,164.909 165.985,169.700 165.184 C 170.965 164.973,173.035 164.627,174.300 164.416 C 181.008 163.297,185.392 163.032,197.200 163.032 C 241.941 163.029,272.225 181.562,283.216 215.671 C 283.880 217.731,284.615 220.618,285.592 225.000 C 288.847 239.611,287.385 262.567,282.205 278.200 C 273.765 303.665,251.170 324.464,224.600 331.225 C 223.940 331.393,222.410 331.801,221.200 332.131 C 203.494 336.965,176.546 338.001,152.800 334.759 C 146.727 333.930,144.598 333.555,139.400 332.400 C 130.715 330.470,123.494 328.061,116.452 324.743 C 113.731 323.461,111.346 322.510,111.152 322.630 C 110.955 322.752,110.800 335.218,110.800 351.024 C 110.800 369.541,110.663 379.200,110.400 379.200 C 110.180 379.200,110.000 379.380,110.000 379.600 C 110.000 379.820,110.360 380.000,110.800 380.000 C 111.240 380.000,111.600 380.180,111.600 380.400 C 111.600 380.620,111.949 380.800,112.376 380.800 C 112.803 380.800,113.264 380.980,113.400 381.200 C 113.536 381.420,113.997 381.600,114.424 381.600 C 114.851 381.600,115.200 381.780,115.200 382.000 C 115.200 382.220,115.560 382.400,116.000 382.400 C 116.440 382.400,116.800 382.580,116.800 382.800 C 116.800 383.020,117.160 383.200,117.600 383.200 C 118.040 383.200,118.400 383.380,118.400 383.600 C 118.400 383.820,118.760 384.000,119.200 384.000 C 119.640 384.000,120.000 384.180,120.000 384.400 C 120.000 384.620,120.540 384.800,121.200 384.800 C 121.860 384.800,122.400 384.980,122.400 385.200 C 122.400 385.420,122.760 385.600,123.200 385.600 C 123.640 385.600,124.000 385.780,124.000 386.000 C 124.000 386.220,124.355 386.400,124.788 386.400 C 125.221 386.400,126.217 386.760,127.000 387.200 C 127.783 387.640,128.779 388.000,129.212 388.000 C 129.645 388.000,130.000 388.180,130.000 388.400 C 130.000 388.620,130.540 388.800,131.200 388.800 C 131.860 388.800,132.400 388.980,132.400 389.200 C 132.400 389.420,132.820 389.600,133.333 389.600 C 133.847 389.600,134.390 389.723,134.541 389.874 C 135.055 390.388,137.796 391.196,139.900 391.453 C 141.055 391.595,142.000 391.865,142.000 392.055 C 142.000 392.245,142.439 392.400,142.976 392.400 C 143.513 392.400,144.064 392.580,144.200 392.800 C 144.336 393.020,145.067 393.200,145.824 393.200 C 146.581 393.200,147.200 393.380,147.200 393.600 C 147.200 393.820,147.920 394.000,148.800 394.000 C 149.680 394.000,150.400 394.180,150.400 394.400 C 150.400 394.620,150.929 394.800,151.576 394.800 C 152.223 394.800,152.864 394.980,153.000 395.200 C 153.136 395.420,154.047 395.600,155.024 395.600 C 156.001 395.600,156.800 395.780,156.800 396.000 C 156.800 396.220,157.610 396.400,158.600 396.400 C 159.590 396.400,160.400 396.580,160.400 396.800 C 160.400 397.020,161.300 397.200,162.400 397.200 C 163.500 397.200,164.400 397.380,164.400 397.600 C 164.400 397.822,165.467 398.000,166.800 398.000 C 168.133 398.000,169.200 398.178,169.200 398.400 C 169.200 398.628,170.389 398.800,171.967 398.800 C 173.824 398.800,174.788 398.964,174.900 399.300 C 175.031 399.693,180.409 399.800,200.000 399.800 C 219.591 399.800,224.969 399.693,225.100 399.300 C 225.212 398.964,226.176 398.800,228.033 398.800 C 229.611 398.800,230.800 398.628,230.800 398.400 C 230.800 398.178,231.859 398.000,233.176 398.000 C 234.483 398.000,235.664 397.820,235.800 397.600 C 235.936 397.380,236.937 397.200,238.024 397.200 C 239.111 397.200,240.000 397.020,240.000 396.800 C 240.000 396.580,240.709 396.400,241.576 396.400 C 242.443 396.400,243.264 396.220,243.400 396.000 C 243.536 395.780,244.447 395.600,245.424 395.600 C 246.401 395.600,247.200 395.420,247.200 395.200 C 247.200 394.980,247.920 394.800,248.800 394.800 C 249.680 394.800,250.400 394.620,250.400 394.400 C 250.400 394.180,251.019 394.000,251.776 394.000 C 252.533 394.000,253.264 393.820,253.400 393.600 C 253.536 393.380,254.177 393.200,254.824 393.200 C 255.471 393.200,256.000 393.020,256.000 392.800 C 256.000 392.580,256.630 392.400,257.400 392.400 C 258.170 392.400,258.800 392.220,258.800 392.000 C 258.800 391.780,259.229 391.600,259.754 391.600 C 260.778 391.600,264.553 390.560,265.695 389.963 C 266.077 389.763,266.664 389.600,267.000 389.600 C 267.336 389.600,267.923 389.441,268.305 389.247 C 268.687 389.052,269.540 388.671,270.200 388.400 C 270.860 388.129,271.713 387.748,272.095 387.553 C 272.477 387.359,273.152 387.200,273.595 387.200 C 274.038 387.200,274.400 387.020,274.400 386.800 C 274.400 386.580,274.760 386.400,275.200 386.400 C 275.640 386.400,276.000 386.220,276.000 386.000 C 276.000 385.780,276.540 385.600,277.200 385.600 C 277.860 385.600,278.400 385.420,278.400 385.200 C 278.400 384.980,278.760 384.800,279.200 384.800 C 279.640 384.800,280.000 384.620,280.000 384.400 C 280.000 384.180,280.360 384.000,280.800 384.000 C 281.240 384.000,281.600 383.820,281.600 383.600 C 281.600 383.380,281.872 383.200,282.205 383.200 C 282.538 383.200,283.168 383.020,283.605 382.800 C 284.042 382.580,284.758 382.220,285.195 382.000 C 285.632 381.780,286.262 381.600,286.595 381.600 C 286.928 381.600,287.201 381.465,287.201 381.300 C 287.202 381.135,288.192 380.550,289.400 380.000 C 290.608 379.450,291.598 378.865,291.599 378.700 C 291.599 378.535,291.960 378.400,292.400 378.400 C 292.840 378.400,293.200 378.220,293.200 378.000 C 293.200 377.780,293.560 377.600,294.000 377.600 C 294.440 377.600,294.800 377.420,294.800 377.200 C 294.800 376.980,295.036 376.800,295.325 376.800 C 295.613 376.800,296.236 376.440,296.708 376.000 C 297.180 375.560,297.775 375.200,298.029 375.200 C 298.611 375.200,302.553 373.105,302.733 372.700 C 302.807 372.535,303.044 372.400,303.261 372.400 C 303.478 372.400,304.441 371.860,305.400 371.200 C 306.359 370.540,307.297 370.000,307.484 370.000 C 307.671 370.000,308.083 369.640,308.400 369.200 C 308.717 368.760,309.257 368.400,309.600 368.400 C 309.943 368.400,310.483 368.040,310.800 367.600 C 311.117 367.160,311.657 366.800,312.000 366.800 C 312.343 366.800,312.883 366.440,313.200 366.000 C 313.517 365.560,314.057 365.200,314.400 365.200 C 314.743 365.200,315.283 364.840,315.600 364.400 C 315.917 363.960,316.407 363.600,316.688 363.600 C 316.970 363.600,317.200 363.420,317.200 363.200 C 317.200 362.980,317.430 362.800,317.712 362.800 C 317.993 362.800,318.483 362.440,318.800 362.000 C 319.117 361.560,319.625 361.200,319.928 361.200 C 320.231 361.200,320.983 360.660,321.600 360.000 C 322.217 359.340,322.836 358.800,322.977 358.800 C 323.248 358.800,323.648 358.486,325.651 356.700 C 326.329 356.095,327.042 355.600,327.234 355.600 C 327.426 355.600,328.573 354.610,329.783 353.400 C 330.993 352.190,332.157 351.200,332.371 351.200 C 332.584 351.200,334.703 349.230,337.079 346.821 C 342.316 341.514,341.514 342.316,346.821 337.079 C 349.230 334.703,351.200 332.584,351.200 332.371 C 351.200 332.157,352.190 330.993,353.400 329.783 C 354.610 328.573,355.600 327.426,355.600 327.234 C 355.600 327.042,356.118 326.305,356.751 325.596 C 358.505 323.633,358.800 323.256,358.800 322.977 C 358.800 322.836,359.340 322.217,360.000 321.600 C 360.660 320.983,361.200 320.231,361.200 319.928 C 361.200 319.625,361.560 319.117,362.000 318.800 C 362.440 318.483,362.800 318.020,362.800 317.771 C 362.800 317.522,363.340 316.754,364.000 316.063 C 364.660 315.372,365.200 314.575,365.200 314.292 C 365.200 314.009,365.560 313.517,366.000 313.200 C 366.440 312.883,366.800 312.343,366.800 312.000 C 366.800 311.657,367.160 311.117,367.600 310.800 C 368.040 310.483,368.400 309.943,368.400 309.600 C 368.400 309.257,368.760 308.717,369.200 308.400 C 369.640 308.083,370.000 307.671,370.000 307.484 C 370.000 307.297,370.540 306.359,371.200 305.400 C 371.860 304.441,372.400 303.463,372.400 303.228 C 372.400 302.993,372.580 302.800,372.800 302.800 C 373.020 302.800,373.200 302.440,373.200 302.000 C 373.200 301.560,373.347 301.200,373.526 301.200 C 373.874 301.200,375.200 298.642,375.200 297.970 C 375.200 297.748,375.560 297.180,376.000 296.708 C 376.440 296.236,376.800 295.613,376.800 295.325 C 376.800 295.036,376.980 294.800,377.200 294.800 C 377.420 294.800,377.600 294.440,377.600 294.000 C 377.600 293.560,377.780 293.200,378.000 293.200 C 378.220 293.200,378.400 292.840,378.400 292.400 C 378.400 291.960,378.546 291.600,378.725 291.600 C 378.904 291.600,379.298 290.970,379.600 290.200 C 379.902 289.430,380.296 288.800,380.475 288.800 C 380.654 288.800,380.800 288.440,380.800 288.000 C 380.800 287.560,380.980 287.200,381.200 287.200 C 381.420 287.200,381.600 286.928,381.600 286.595 C 381.600 286.262,381.780 285.632,382.000 285.195 C 382.220 284.758,382.580 284.042,382.800 283.605 C 383.020 283.168,383.200 282.538,383.200 282.205 C 383.200 281.872,383.380 281.600,383.600 281.600 C 383.820 281.600,384.000 281.240,384.000 280.800 C 384.000 280.360,384.180 280.000,384.400 280.000 C 384.620 280.000,384.800 279.651,384.800 279.224 C 384.800 278.797,384.980 278.336,385.200 278.200 C 385.420 278.064,385.600 277.513,385.600 276.976 C 385.600 276.439,385.780 276.000,386.000 276.000 C 386.220 276.000,386.400 275.640,386.400 275.200 C 386.400 274.760,386.580 274.400,386.800 274.400 C 387.020 274.400,387.200 274.038,387.200 273.595 C 387.200 273.152,387.359 272.477,387.553 272.095 C 387.748 271.713,388.129 270.860,388.400 270.200 C 388.671 269.540,389.052 268.687,389.247 268.305 C 389.441 267.923,389.600 267.336,389.600 267.000 C 389.600 266.664,389.763 266.077,389.963 265.695 C 390.560 264.553,391.600 260.778,391.600 259.754 C 391.600 259.229,391.780 258.800,392.000 258.800 C 392.220 258.800,392.400 258.170,392.400 257.400 C 392.400 256.630,392.580 256.000,392.800 256.000 C 393.020 256.000,393.200 255.471,393.200 254.824 C 393.200 254.177,393.380 253.536,393.600 253.400 C 393.820 253.264,394.000 252.533,394.000 251.776 C 394.000 251.019,394.180 250.400,394.400 250.400 C 394.620 250.400,394.800 249.680,394.800 248.800 C 394.800 247.920,394.980 247.200,395.200 247.200 C 395.420 247.200,395.600 246.491,395.600 245.624 C 395.600 244.757,395.780 243.936,396.000 243.800 C 396.220 243.664,396.400 242.753,396.400 241.776 C 396.400 240.799,396.580 240.000,396.800 240.000 C 397.020 240.000,397.200 239.111,397.200 238.024 C 397.200 236.937,397.380 235.936,397.600 235.800 C 397.820 235.664,398.000 234.584,398.000 233.400 C 398.000 232.216,398.180 231.136,398.400 231.000 C 398.620 230.864,398.800 229.518,398.800 228.010 C 398.800 226.171,398.965 225.212,399.300 225.100 C 400.031 224.856,400.031 175.871,399.300 175.140 C 398.998 174.838,398.800 173.563,398.800 171.920 C 398.800 170.373,398.627 169.200,398.400 169.200 C 398.180 169.200,398.000 168.221,398.000 167.024 C 398.000 165.827,397.820 164.736,397.600 164.600 C 397.380 164.464,397.200 163.463,397.200 162.376 C 397.200 161.289,397.020 160.400,396.800 160.400 C 396.580 160.400,396.400 159.590,396.400 158.600 C 396.400 157.610,396.220 156.800,396.000 156.800 C 395.780 156.800,395.600 156.091,395.600 155.224 C 395.600 154.357,395.420 153.536,395.200 153.400 C 394.980 153.264,394.800 152.533,394.800 151.776 C 394.800 151.019,394.620 150.400,394.400 150.400 C 394.180 150.400,394.000 149.680,394.000 148.800 C 394.000 147.920,393.820 147.200,393.600 147.200 C 393.380 147.200,393.200 146.581,393.200 145.824 C 393.200 145.067,393.020 144.336,392.800 144.200 C 392.580 144.064,392.400 143.513,392.400 142.976 C 392.400 142.439,392.245 142.000,392.056 142.000 C 391.866 142.000,391.601 141.069,391.466 139.931 C 391.332 138.792,391.036 137.676,390.811 137.451 C 390.585 137.225,390.400 136.536,390.400 135.920 C 390.400 135.304,390.220 134.800,390.000 134.800 C 389.780 134.800,389.600 134.260,389.600 133.600 C 389.600 132.940,389.420 132.400,389.200 132.400 C 388.980 132.400,388.800 131.961,388.800 131.424 C 388.800 130.887,388.620 130.336,388.400 130.200 C 388.180 130.064,388.000 129.513,388.000 128.976 C 388.000 128.439,387.820 128.000,387.600 128.000 C 387.380 128.000,387.200 127.651,387.200 127.224 C 387.200 126.797,387.020 126.336,386.800 126.200 C 386.580 126.064,386.400 125.513,386.400 124.976 C 386.400 124.439,386.220 124.000,386.000 124.000 C 385.780 124.000,385.600 123.640,385.600 123.200 C 385.600 122.760,385.420 122.400,385.200 122.400 C 384.980 122.400,384.800 121.961,384.800 121.424 C 384.800 120.887,384.620 120.336,384.400 120.200 C 384.180 120.064,384.000 119.603,384.000 119.176 C 384.000 118.749,383.820 118.400,383.600 118.400 C 383.380 118.400,383.200 118.040,383.200 117.600 C 383.200 117.160,383.020 116.800,382.800 116.800 C 382.580 116.800,382.400 116.440,382.400 116.000 C 382.400 115.560,382.220 115.200,382.000 115.200 C 381.780 115.200,381.600 114.840,381.600 114.400 C 381.600 113.960,381.420 113.600,381.200 113.600 C 380.980 113.600,380.800 113.347,380.800 113.038 C 380.800 112.372,379.132 109.059,378.700 108.867 C 378.535 108.793,378.400 108.478,378.400 108.167 C 378.400 107.855,378.220 107.600,378.000 107.600 C 377.780 107.600,377.600 107.240,377.600 106.800 C 377.600 106.360,377.420 106.000,377.200 106.000 C 376.980 106.000,376.800 105.640,376.800 105.200 C 376.800 104.760,376.620 104.400,376.400 104.400 C 376.180 104.400,376.000 104.040,376.000 103.600 C 376.000 103.160,375.820 102.800,375.600 102.800 C 375.380 102.800,375.200 102.545,375.200 102.232 C 375.200 101.708,374.059 99.260,373.600 98.800 C 373.204 98.404,371.946 96.185,371.729 95.500 C 371.607 95.115,371.348 94.800,371.153 94.800 C 370.959 94.800,370.800 94.564,370.800 94.275 C 370.800 93.987,370.440 93.364,370.000 92.892 C 369.560 92.420,369.200 91.846,369.200 91.617 C 369.200 91.388,369.042 91.200,368.849 91.200 C 368.655 91.200,368.273 90.660,368.000 90.000 C 367.727 89.340,367.345 88.800,367.151 88.800 C 366.958 88.800,366.800 88.575,366.799 88.300 C 366.799 88.025,366.259 87.170,365.600 86.400 C 364.941 85.630,364.401 84.815,364.401 84.588 C 364.400 84.362,364.040 83.917,363.600 83.600 C 363.160 83.283,362.800 82.775,362.800 82.472 C 362.800 82.169,362.260 81.417,361.600 80.800 C 360.940 80.183,360.400 79.463,360.400 79.200 C 360.400 78.937,359.860 78.217,359.200 77.600 C 358.540 76.983,358.000 76.326,358.000 76.139 C 358.000 75.953,357.280 75.012,356.400 74.049 C 355.520 73.087,354.800 72.146,354.800 71.958 C 354.800 71.771,353.853 70.668,352.695 69.509 C 351.538 68.349,350.146 66.770,349.603 66.000 C 349.060 65.230,347.172 63.200,345.408 61.489 C 341.538 57.735,342.265 58.462,338.511 54.592 C 336.800 52.828,334.770 50.940,334.000 50.397 C 333.230 49.854,331.651 48.462,330.491 47.305 C 329.332 46.147,328.229 45.200,328.042 45.200 C 327.854 45.200,326.913 44.480,325.951 43.600 C 324.988 42.720,324.064 42.000,323.897 42.000 C 323.729 42.000,323.028 41.460,322.337 40.800 C 321.646 40.140,320.926 39.600,320.737 39.600 C 320.548 39.600,319.828 39.060,319.137 38.400 C 318.446 37.740,317.678 37.200,317.429 37.200 C 317.180 37.200,316.717 36.840,316.400 36.400 C 316.083 35.960,315.569 35.600,315.259 35.600 C 314.948 35.600,314.403 35.284,314.047 34.897 C 313.691 34.511,312.905 33.940,312.300 33.630 C 311.695 33.319,311.200 32.915,311.200 32.732 C 311.200 32.550,310.880 32.400,310.488 32.400 C 310.097 32.400,309.517 32.040,309.200 31.600 C 308.883 31.160,308.427 30.800,308.187 30.800 C 307.947 30.800,307.402 30.475,306.975 30.078 C 306.549 29.680,305.615 29.097,304.900 28.780 C 304.185 28.464,303.600 28.098,303.600 27.967 C 303.600 27.837,302.205 27.026,300.500 26.165 C 298.795 25.304,297.340 24.465,297.267 24.300 C 297.193 24.135,296.788 24.000,296.367 24.000 C 295.945 24.000,295.600 23.820,295.600 23.600 C 295.600 23.380,295.240 23.200,294.800 23.200 C 294.360 23.200,294.000 23.020,294.000 22.800 C 294.000 22.580,293.640 22.400,293.200 22.400 C 292.760 22.400,292.400 22.254,292.400 22.075 C 292.400 21.896,291.770 21.502,291.000 21.200 C 290.230 20.898,289.600 20.504,289.600 20.325 C 289.600 20.146,289.240 20.000,288.800 20.000 C 288.360 20.000,288.000 19.820,288.000 19.600 C 288.000 19.380,287.640 19.200,287.200 19.200 C 286.760 19.200,286.400 19.020,286.400 18.800 C 286.400 18.580,286.040 18.400,285.600 18.400 C 285.160 18.400,284.800 18.220,284.800 18.000 C 284.800 17.780,284.440 17.600,284.000 17.600 C 283.560 17.600,283.200 17.420,283.200 17.200 C 283.200 16.980,282.761 16.800,282.224 16.800 C 281.687 16.800,281.136 16.620,281.000 16.400 C 280.864 16.180,280.403 16.000,279.976 16.000 C 279.549 16.000,279.200 15.820,279.200 15.600 C 279.200 15.380,278.840 15.200,278.400 15.200 C 277.960 15.200,277.600 15.020,277.600 14.800 C 277.600 14.580,277.060 14.400,276.400 14.400 C 275.740 14.400,275.200 14.220,275.200 14.000 C 275.200 13.780,274.840 13.600,274.400 13.600 C 273.960 13.600,273.600 13.420,273.600 13.200 C 273.600 12.980,273.161 12.800,272.624 12.800 C 272.087 12.800,271.536 12.620,271.400 12.400 C 271.123 11.953,269.080 11.853,268.667 12.267 " stroke="none" fill="#24a464" fill-rule="evenodd"></path></g></svg>