<svg id="svg" version="1.1" xmlns="http://www.w3.org/2000/svg" width="400"
     height="400" viewBox="0, 0, 400,400">
    <g id="svgg">
        <path id="path0"
              d="M66.102 2.370 C 41.640 8.260,19.519 26.700,8.165 50.665 L 1.111 65.556 0.469 193.232 C 0.060 274.457,0.654 324.768,2.102 331.518 C 7.858 358.358,25.005 379.680,50.576 391.793 L 65.556 398.889 200.000 398.889 L 334.444 398.889 348.994 391.994 C 373.930 380.178,389.202 362.787,396.471 337.930 C 402.221 318.266,401.723 79.265,395.893 60.533 C 388.258 36.001,372.940 19.145,347.413 7.187 L 334.444 1.111 204.444 0.736 C 132.944 0.530,70.690 1.266,66.102 2.370 M246.438 74.528 C 312.851 90.183,357.603 160.270,343.582 226.667 C 327.740 301.681,250.373 348.599,178.889 326.543 C 158.920 320.382,159.408 320.794,163.797 313.773 C 165.858 310.476,167.639 307.568,167.756 307.312 C 167.873 307.056,174.265 308.806,181.960 311.201 C 279.639 341.602,364.348 237.698,316.350 146.358 C 267.884 54.126,124.343 74.199,103.554 176.115 C 100.926 188.999,100.284 189.987,93.667 191.340 C 84.396 193.236,84.107 192.389,87.862 174.283 C 102.537 103.503,175.267 57.751,246.438 74.528 M227.879 118.788 C 241.865 132.774,224.580 154.819,206.826 145.638 C 191.081 137.496,197.611 113.333,215.556 113.333 C 219.885 113.333,224.440 115.350,227.879 118.788 M215.556 154.432 C 230.833 154.425,252.333 153.925,263.333 153.321 L 283.333 152.222 284.025 158.211 C 284.801 164.933,279.432 167.153,255.556 169.983 C 233.340 172.617,234.884 170.167,236.156 200.788 C 236.989 220.819,239.071 234.870,244.231 255.284 C 249.534 276.264,250.584 283.514,248.653 285.839 C 245.642 289.468,238.639 289.858,236.571 286.512 C 235.381 284.587,220.000 227.633,220.000 225.152 C 220.000 224.763,218.028 224.444,215.618 224.444 C 210.930 224.444,210.007 226.934,199.560 267.778 C 194.831 286.265,193.997 287.830,188.524 288.463 C 179.419 289.516,179.177 283.846,186.967 252.039 C 192.511 229.403,194.044 218.222,194.221 199.158 C 194.483 170.822,196.008 172.593,167.793 168.473 C 151.639 166.115,147.662 164.785,147.049 161.537 C 145.181 151.636,147.657 150.594,168.340 152.579 C 179.031 153.605,200.278 154.439,215.556 154.432 M131.429 212.648 C 154.564 225.629,165.931 247.576,163.939 275.417 C 159.081 343.310,64.162 355.239,39.762 291.022 C 19.057 236.531,80.447 184.043,131.429 212.648 M87.915 248.749 C 81.592 255.224,77.208 257.727,71.327 258.219 C 56.593 259.453,59.192 282.222,74.067 282.222 C 78.976 282.222,83.317 284.559,89.347 290.448 C 101.078 301.903,102.495 299.311,101.740 267.774 C 101.022 237.751,100.012 236.360,87.915 248.749 M126.667 245.694 C 126.667 246.381,128.282 251.881,130.256 257.916 C 133.560 268.017,133.560 269.761,130.256 279.862 C 125.130 295.534,127.665 299.777,134.387 286.777 C 140.678 274.612,136.719 244.444,128.832 244.444 C 127.641 244.444,126.667 245.007,126.667 245.694 M113.333 255.411 C 113.333 256.554,114.294 260.016,115.469 263.106 C 116.882 266.822,116.795 271.044,115.212 275.586 C 112.338 283.830,114.674 287.251,119.071 281.238 C 122.762 276.191,123.209 263.774,119.922 257.632 C 117.540 253.181,113.333 251.763,113.333 255.411 "
              stroke="none" fill="#FFF" fill-rule="evenodd"></path>
    </g>
</svg>